<svg xmlns="http://www.w3.org/2000/svg" viewBox="0 0 1394.63 868.05">
  <title>Asset 2</title>
  <g id="Layer_2" data-name="Layer 2">
    <g id="Layer_1-2" data-name="Layer 1">
      <g>
        <g>
          <g>
            <polygon points="616.32 316.94 728.32 275.32 728.32 486.25 616.32 527.88 616.32 316.94" style="fill: #333"/>
            <path d="M727.81,276V485.9l-111,41.26V317.29l111-41.26m1-1.44-113,42v212l113-42v-212Z" style="fill: #fff"/>
          </g>
          <polygon points="615.82 316.6 615.82 528.6 565.82 464.6 565.82 252.6 615.82 316.6" style="fill: #8f8f8f;stroke: #fff;stroke-miterlimit: 10"/>
        </g>
        <polygon points="728.82 274.6 615.82 316.6 565.82 252.6 678.82 210.6 728.82 274.6" style="fill: #333;stroke: #fff;stroke-miterlimit: 10"/>
      </g>
      <g>
        <g>
          <g>
            <polygon points="1181.32 106.94 1293.32 65.32 1293.32 276.25 1181.32 317.88 1181.32 106.94" style="fill: #333"/>
            <path d="M1292.81,66V275.9l-111,41.26V107.29l111-41.26m1-1.44-113,42v212l113-42V64.6Z" style="fill: #fff"/>
          </g>
          <polygon points="1180.82 106.6 1180.82 318.6 1130.82 254.6 1130.82 42.6 1180.82 106.6" style="fill: #8f8f8f;stroke: #fff;stroke-miterlimit: 10"/>
        </g>
        <polygon points="1293.82 64.6 1180.82 106.6 1130.82 42.6 1243.82 0.6 1293.82 64.6" style="fill: #333;stroke: #fff;stroke-miterlimit: 10"/>
      </g>
      <g>
        <g>
          <g>
            <polygon points="1068.32 148.94 1180.32 107.32 1180.32 318.25 1068.32 359.88 1068.32 148.94" style="fill: #333"/>
            <path d="M1179.81,108V317.9l-111,41.26V149.29l111-41.26m1-1.44-113,42v212l113-42v-212Z" style="fill: #fff"/>
          </g>
          <polygon points="1067.82 148.6 1067.82 360.6 1017.82 296.6 1017.82 84.6 1067.82 148.6" style="fill: #8f8f8f;stroke: #fff;stroke-miterlimit: 10"/>
        </g>
        <polygon points="1180.82 106.6 1067.82 148.6 1017.82 84.6 1130.82 42.6 1180.82 106.6" style="fill: #333;stroke: #fff;stroke-miterlimit: 10"/>
      </g>
      <g>
        <g>
          <g>
            <polygon points="955.32 190.94 1067.32 149.32 1067.32 360.25 955.32 401.88 955.32 190.94" style="fill: #333"/>
            <path d="M1066.81,150V359.9l-111,41.26V191.29l111-41.26m1-1.44-113,42v212l113-42v-212Z" style="fill: #fff"/>
          </g>
          <polygon points="954.82 190.6 954.82 402.6 904.82 338.6 904.82 126.6 954.82 190.6" style="fill: #8f8f8f;stroke: #fff;stroke-miterlimit: 10"/>
        </g>
        <polygon points="1067.82 148.6 954.82 190.6 904.82 126.6 1017.82 84.6 1067.82 148.6" style="fill: #333;stroke: #fff;stroke-miterlimit: 10"/>
      </g>
      <g>
        <g>
          <g>
            <polygon points="842.32 232.94 954.32 191.32 954.32 402.25 842.32 443.88 842.32 232.94" style="fill: #333"/>
            <path d="M953.81,192V401.9l-111,41.26V233.29l111-41.26m1-1.44-113,42v212l113-42v-212Z" style="fill: #fff"/>
          </g>
          <polygon points="841.82 232.6 841.82 444.6 791.82 380.6 791.82 168.6 841.82 232.6" style="fill: #8f8f8f;stroke: #fff;stroke-miterlimit: 10"/>
        </g>
        <polygon points="954.82 190.6 841.82 232.6 791.82 168.6 904.82 126.6 954.82 190.6" style="fill: #333;stroke: #fff;stroke-miterlimit: 10"/>
      </g>
      <g>
        <g>
          <g>
            <polygon points="729.32 274.94 841.32 233.32 841.32 444.25 729.32 485.88 729.32 274.94" style="fill: #333"/>
            <path d="M840.81,234V443.9l-111,41.26V275.29l111-41.26m1-1.44-113,42v212l113-42v-212Z" style="fill: #fff"/>
          </g>
          <polygon points="728.82 274.6 728.82 486.6 678.82 422.6 678.82 210.6 728.82 274.6" style="fill: #8f8f8f;stroke: #fff;stroke-miterlimit: 10"/>
        </g>
        <polygon points="841.82 232.6 728.82 274.6 678.82 210.6 791.82 168.6 841.82 232.6" style="fill: #333;stroke: #fff;stroke-miterlimit: 10"/>
      </g>
      <g>
        <g>
          <g>
            <polygon points="1231.32 170.94 1343.32 129.32 1343.32 340.25 1231.32 381.88 1231.32 170.94" style="fill: #333"/>
            <path d="M1342.81,130V339.9l-111,41.26V171.29l111-41.26m1-1.44-113,42v212l113-42v-212Z" style="fill: #fff"/>
          </g>
          <polygon points="1230.82 170.6 1230.82 382.6 1180.82 318.6 1180.82 106.6 1230.82 170.6" style="fill: #8f8f8f;stroke: #fff;stroke-miterlimit: 10"/>
        </g>
        <polygon points="1343.82 128.6 1230.82 170.6 1180.82 106.6 1293.82 64.6 1343.82 128.6" style="fill: #333;stroke: #fff;stroke-miterlimit: 10"/>
      </g>
      <g>
        <g>
          <g>
            <polygon points="1118.32 212.94 1230.32 171.32 1230.32 382.25 1118.32 423.88 1118.32 212.94" style="fill: #333"/>
            <path d="M1229.81,172V381.9l-111,41.26V213.29l111-41.26m1-1.44-113,42v212l113-42v-212Z" style="fill: #fff"/>
          </g>
          <polygon points="1117.82 212.6 1117.82 424.6 1067.82 360.6 1067.82 148.6 1117.82 212.6" style="fill: #8f8f8f;stroke: #fff;stroke-miterlimit: 10"/>
        </g>
        <polygon points="1230.82 170.6 1117.82 212.6 1067.82 148.6 1180.82 106.6 1230.82 170.6" style="fill: #333;stroke: #fff;stroke-miterlimit: 10"/>
      </g>
      <g>
        <g>
          <g>
            <polygon points="1005.32 254.94 1117.32 213.32 1117.32 424.25 1005.32 465.88 1005.32 254.94" style="fill: #333"/>
            <path d="M1116.81,214V423.9l-111,41.26V255.29l111-41.26m1-1.44-113,42v212l113-42v-212Z" style="fill: #fff"/>
          </g>
          <polygon points="1004.82 254.6 1004.82 466.6 954.82 402.6 954.82 190.6 1004.82 254.6" style="fill: #8f8f8f;stroke: #fff;stroke-miterlimit: 10"/>
        </g>
        <polygon points="1117.82 212.6 1004.82 254.6 954.82 190.6 1067.82 148.6 1117.82 212.6" style="fill: #333;stroke: #fff;stroke-miterlimit: 10"/>
      </g>
      <g>
        <g>
          <g>
            <polygon points="892.32 296.94 1004.32 255.32 1004.32 466.25 892.32 507.88 892.32 296.94" style="fill: #333"/>
            <path d="M1003.81,256V465.9l-111,41.26V297.29l111-41.26m1-1.44-113,42v212l113-42v-212Z" style="fill: #fff"/>
          </g>
          <polygon points="891.82 296.6 891.82 508.6 841.82 444.6 841.82 232.6 891.82 296.6" style="fill: #8f8f8f;stroke: #fff;stroke-miterlimit: 10"/>
        </g>
        <polygon points="1004.82 254.6 891.82 296.6 841.82 232.6 954.82 190.6 1004.82 254.6" style="fill: #333;stroke: #fff;stroke-miterlimit: 10"/>
      </g>
      <g>
        <g>
          <g>
            <polygon points="779.32 338.94 891.32 297.32 891.32 508.25 779.32 549.88 779.32 338.94" style="fill: #333"/>
            <path d="M890.81,298V507.9l-111,41.26V339.29l111-41.26m1-1.44-113,42v212l113-42v-212Z" style="fill: #fff"/>
          </g>
          <polygon points="778.82 338.6 778.82 550.6 728.82 486.6 728.82 274.6 778.82 338.6" style="fill: #8f8f8f;stroke: #fff;stroke-miterlimit: 10"/>
        </g>
        <polygon points="891.82 296.6 778.82 338.6 728.82 274.6 841.82 232.6 891.82 296.6" style="fill: #333;stroke: #fff;stroke-miterlimit: 10"/>
      </g>
      <g>
        <g>
          <g>
            <polygon points="503.31 358.94 615.32 317.32 615.32 528.25 503.31 569.88 503.31 358.94" style="fill: #333"/>
            <path d="M614.81,318V527.9l-111,41.26V359.29l111-41.26m1-1.44-113,42v212l113-42v-212Z" style="fill: #fff"/>
          </g>
          <polygon points="502.81 358.6 502.81 570.6 452.81 506.6 452.81 294.6 502.81 358.6" style="fill: #8f8f8f;stroke: #fff;stroke-miterlimit: 10"/>
        </g>
        <polygon points="615.82 316.6 502.81 358.6 452.81 294.6 565.82 252.6 615.82 316.6" style="fill: #333;stroke: #fff;stroke-miterlimit: 10"/>
      </g>
      <g>
        <g>
          <g>
            <polygon points="390.31 400.94 502.31 359.32 502.31 570.25 390.31 611.88 390.31 400.94" style="fill: #333"/>
            <path d="M501.81,360V569.9l-111,41.26V401.29l111-41.26m1-1.44-113,42v212l113-42v-212Z" style="fill: #fff"/>
          </g>
          <polygon points="389.81 400.6 389.81 612.6 339.81 548.6 339.81 336.6 389.81 400.6" style="fill: #8f8f8f;stroke: #fff;stroke-miterlimit: 10"/>
        </g>
        <polygon points="502.81 358.6 389.81 400.6 339.81 336.6 452.81 294.6 502.81 358.6" style="fill: #333;stroke: #fff;stroke-miterlimit: 10"/>
      </g>
      <g>
        <g>
          <g>
            <polygon points="277.31 442.94 389.31 401.32 389.31 612.25 277.31 653.88 277.31 442.94" style="fill: #333"/>
            <path d="M388.81,402V611.9l-111,41.26V443.29l111-41.26m1-1.44-113,42v212l113-42v-212Z" style="fill: #fff"/>
          </g>
          <polygon points="276.81 442.6 276.81 654.6 226.81 590.6 226.81 378.6 276.81 442.6" style="fill: #8f8f8f;stroke: #fff;stroke-miterlimit: 10"/>
        </g>
        <polygon points="389.81 400.6 276.81 442.6 226.81 378.6 339.81 336.6 389.81 400.6" style="fill: #333;stroke: #fff;stroke-miterlimit: 10"/>
      </g>
      <g>
        <g>
          <g>
            <polygon points="164.31 484.94 276.31 443.32 276.31 654.25 164.31 695.88 164.31 484.94" style="fill: #333"/>
            <path d="M275.81,444V653.9l-111,41.26V485.29l111-41.26m1-1.44-113,42v212l113-42v-212Z" style="fill: #fff"/>
          </g>
          <polygon points="163.81 484.6 163.81 696.6 113.81 632.6 113.81 420.6 163.81 484.6" style="fill: #8f8f8f;stroke: #fff;stroke-miterlimit: 10"/>
        </g>
        <polygon points="276.81 442.6 163.81 484.6 113.81 420.6 226.81 378.6 276.81 442.6" style="fill: #333;stroke: #fff;stroke-miterlimit: 10"/>
      </g>
      <g>
        <g>
          <g>
            <polygon points="51.31 526.94 163.31 485.32 163.31 696.25 51.31 737.88 51.31 526.94" style="fill: #333"/>
            <path d="M162.81,486V695.9l-111,41.26V527.29l111-41.26m1-1.44-113,42v212l113-42v-212Z" style="fill: #fff"/>
          </g>
          <polygon points="50.81 526.6 50.81 738.6 0.81 674.6 0.81 462.6 50.81 526.6" style="fill: #8f8f8f;stroke: #fff;stroke-miterlimit: 10"/>
        </g>
        <polygon points="163.81 484.6 50.81 526.6 0.81 462.6 113.81 420.6 163.81 484.6" style="fill: #333;stroke: #fff;stroke-miterlimit: 10"/>
      </g>
      <g>
        <g>
          <g>
            <polygon points="666.32 300.94 778.32 259.32 778.32 470.25 666.32 511.88 666.32 300.94" style="fill: #333"/>
            <path d="M777.81,260V469.9l-111,41.26V301.29l111-41.26m1-1.44-113,42v212l113-42v-212Z" style="fill: #fff"/>
          </g>
          <polygon points="665.82 300.6 665.82 512.6 615.82 448.6 615.82 236.6 665.82 300.6" style="fill: #8f8f8f;stroke: #fff;stroke-miterlimit: 10"/>
        </g>
        <polygon points="778.82 258.6 665.82 300.6 615.82 236.6 728.82 194.6 778.82 258.6" style="fill: #333;stroke: #fff;stroke-miterlimit: 10"/>
        <line x1="750.31" y1="221.1" x2="638.31" y2="265.1" style="fill: none;stroke: #fff;stroke-miterlimit: 10"/>
      </g>
      <g>
        <g>
          <g>
            <polygon points="553.32 422.94 665.32 381.32 665.32 592.25 553.32 633.88 553.32 422.94" style="fill: #333"/>
            <path d="M664.81,382V591.9l-111,41.26V423.29l111-41.26m1-1.44-113,42v212l113-42v-212Z" style="fill: #fff"/>
          </g>
          <polygon points="552.82 422.6 552.82 634.6 502.81 570.6 502.81 358.6 552.82 422.6" style="fill: #8f8f8f;stroke: #fff;stroke-miterlimit: 10"/>
        </g>
        <polygon points="665.82 380.6 552.82 422.6 502.81 358.6 615.82 316.6 665.82 380.6" style="fill: #333;stroke: #fff;stroke-miterlimit: 10"/>
      </g>
      <g>
        <g>
          <g>
            <polygon points="440.31 464.94 552.32 423.32 552.32 634.25 440.31 675.88 440.31 464.94" style="fill: #333"/>
            <path d="M551.81,424V633.9l-111,41.26V465.29l111-41.26m1-1.44-113,42v212l113-42v-212Z" style="fill: #fff"/>
          </g>
          <polygon points="439.81 464.6 439.81 676.6 389.81 612.6 389.81 400.6 439.81 464.6" style="fill: #8f8f8f;stroke: #fff;stroke-miterlimit: 10"/>
        </g>
        <polygon points="552.82 422.6 439.81 464.6 389.81 400.6 502.81 358.6 552.82 422.6" style="fill: #333;stroke: #fff;stroke-miterlimit: 10"/>
      </g>
      <g>
        <g>
          <g>
            <polygon points="327.31 506.94 439.31 465.32 439.31 676.25 327.31 717.88 327.31 506.94" style="fill: #333"/>
            <path d="M438.81,466V675.9l-111,41.26V507.29l111-41.26m1-1.44-113,42v212l113-42v-212Z" style="fill: #fff"/>
          </g>
          <polygon points="326.81 506.6 326.81 718.6 276.81 654.6 276.81 442.6 326.81 506.6" style="fill: #8f8f8f;stroke: #fff;stroke-miterlimit: 10"/>
        </g>
        <polygon points="439.81 464.6 326.81 506.6 276.81 442.6 389.81 400.6 439.81 464.6" style="fill: #333;stroke: #fff;stroke-miterlimit: 10"/>
      </g>
      <g>
        <g>
          <g>
            <polygon points="214.31 548.94 326.31 507.32 326.31 718.25 214.31 759.88 214.31 548.94" style="fill: #333"/>
            <path d="M325.81,508V717.9l-111,41.26V549.29l111-41.26m1-1.44-113,42v212l113-42v-212Z" style="fill: #fff"/>
          </g>
          <polygon points="213.81 548.6 213.81 760.6 163.81 696.6 163.81 484.6 213.81 548.6" style="fill: #8f8f8f;stroke: #fff;stroke-miterlimit: 10"/>
        </g>
        <polygon points="326.81 506.6 213.81 548.6 163.81 484.6 276.81 442.6 326.81 506.6" style="fill: #333;stroke: #fff;stroke-miterlimit: 10"/>
      </g>
      <g>
        <g>
          <g>
            <polygon points="101.31 590.94 213.31 549.32 213.31 760.25 101.31 801.88 101.31 590.94" style="fill: #333"/>
            <path d="M212.81,550V759.9l-111,41.26V591.29l111-41.26m1-1.44-113,42v212l113-42v-212Z" style="fill: #fff"/>
          </g>
          <polygon points="100.81 590.6 100.81 802.6 50.81 738.6 50.81 526.6 100.81 590.6" style="fill: #8f8f8f;stroke: #fff;stroke-miterlimit: 10"/>
        </g>
        <polygon points="213.81 548.6 100.81 590.6 50.81 526.6 163.81 484.6 213.81 548.6" style="fill: #333;stroke: #fff;stroke-miterlimit: 10"/>
      </g>
      <g>
        <g>
          <g>
            <polygon points="1281.32 234.94 1393.32 193.32 1393.32 404.25 1281.32 445.88 1281.32 234.94" style="fill: #333"/>
            <path d="M1392.81,194V403.9l-111,41.26V235.29l111-41.26m1-1.44-113,42v212l113-42v-212Z" style="fill: #fff"/>
          </g>
          <polygon points="1280.82 234.6 1280.82 446.6 1230.82 382.6 1230.82 170.6 1280.82 234.6" style="fill: #8f8f8f;stroke: #fff;stroke-miterlimit: 10"/>
        </g>
        <polygon points="1393.82 192.6 1280.82 234.6 1230.82 170.6 1343.82 128.6 1393.82 192.6" style="fill: #333;stroke: #fff;stroke-miterlimit: 10"/>
      </g>
      <g>
        <g>
          <g>
            <polygon points="1168.32 276.94 1280.32 235.32 1280.32 446.25 1168.32 487.88 1168.32 276.94" style="fill: #333"/>
            <path d="M1279.81,236V445.9l-111,41.26V277.29l111-41.26m1-1.44-113,42v212l113-42v-212Z" style="fill: #fff"/>
          </g>
          <polygon points="1167.82 276.6 1167.82 488.6 1117.82 424.6 1117.82 212.6 1167.82 276.6" style="fill: #8f8f8f;stroke: #fff;stroke-miterlimit: 10"/>
        </g>
        <polygon points="1280.82 234.6 1167.82 276.6 1117.82 212.6 1230.82 170.6 1280.82 234.6" style="fill: #333;stroke: #fff;stroke-miterlimit: 10"/>
      </g>
      <g>
        <g>
          <g>
            <polygon points="1055.32 318.94 1167.32 277.32 1167.32 488.25 1055.32 529.88 1055.32 318.94" style="fill: #333"/>
            <path d="M1166.81,278V487.9l-111,41.26V319.29l111-41.26m1-1.44-113,42v212l113-42v-212Z" style="fill: #fff"/>
          </g>
          <polygon points="1054.82 318.6 1054.82 530.6 1004.82 466.6 1004.82 254.6 1054.82 318.6" style="fill: #8f8f8f;stroke: #fff;stroke-miterlimit: 10"/>
        </g>
        <polygon points="1167.82 276.6 1054.82 318.6 1004.82 254.6 1117.82 212.6 1167.82 276.6" style="fill: #333;stroke: #fff;stroke-miterlimit: 10"/>
      </g>
      <g>
        <g>
          <g>
            <polygon points="829.32 402.94 941.32 361.32 941.32 572.25 829.32 613.88 829.32 402.94" style="fill: #333"/>
            <path d="M940.81,362V571.9l-111,41.26V403.29l111-41.26m1-1.44-113,42v212l113-42v-212Z" style="fill: #fff"/>
          </g>
          <polygon points="828.82 402.6 828.82 614.6 778.82 550.6 778.82 338.6 828.82 402.6" style="fill: #8f8f8f;stroke: #fff;stroke-miterlimit: 10"/>
        </g>
        <polygon points="941.82 360.6 828.82 402.6 778.82 338.6 891.82 296.6 941.82 360.6" style="fill: #333;stroke: #fff;stroke-miterlimit: 10"/>
      </g>
      <g>
        <g>
          <g>
            <polygon points="716.32 444.94 828.32 403.32 828.32 614.25 716.32 655.88 716.32 444.94" style="fill: #333"/>
            <path d="M827.81,404V613.9l-111,41.26V445.29l111-41.26m1-1.44-113,42v212l113-42v-212Z" style="fill: #fff"/>
          </g>
          <polygon points="715.82 444.6 715.82 656.6 665.82 592.6 665.82 380.6 715.82 444.6" style="fill: #8f8f8f;stroke: #fff;stroke-miterlimit: 10"/>
        </g>
        <polygon points="828.82 402.6 715.82 444.6 665.82 380.6 778.82 338.6 828.82 402.6" style="fill: #333;stroke: #fff;stroke-miterlimit: 10"/>
      </g>
      <g>
        <g>
          <g>
            <polygon points="603.32 486.94 715.32 445.32 715.32 656.25 603.32 697.88 603.32 486.94" style="fill: #333"/>
            <path d="M714.81,446V655.9l-111,41.26V487.29l111-41.26m1-1.44-113,42v212l113-42v-212Z" style="fill: #fff"/>
          </g>
          <polygon points="602.82 486.6 602.82 698.6 552.82 634.6 552.82 422.6 602.82 486.6" style="fill: #8f8f8f;stroke: #fff;stroke-miterlimit: 10"/>
        </g>
        <polygon points="715.82 444.6 602.82 486.6 552.82 422.6 665.82 380.6 715.82 444.6" style="fill: #333;stroke: #fff;stroke-miterlimit: 10"/>
      </g>
      <g>
        <g>
          <g>
            <polygon points="490.31 528.94 602.32 487.32 602.32 698.25 490.31 739.88 490.31 528.94" style="fill: #333"/>
            <path d="M601.81,488V697.9l-111,41.26V529.29l111-41.26m1-1.44-113,42v212l113-42v-212Z" style="fill: #fff"/>
          </g>
          <polygon points="489.81 528.6 489.81 740.6 439.81 676.6 439.81 464.6 489.81 528.6" style="fill: #8f8f8f;stroke: #fff;stroke-miterlimit: 10"/>
        </g>
        <polygon points="602.82 486.6 489.81 528.6 439.81 464.6 552.82 422.6 602.82 486.6" style="fill: #333;stroke: #fff;stroke-miterlimit: 10"/>
      </g>
      <g>
        <g>
          <g>
            <polygon points="377.31 570.94 489.31 529.32 489.31 740.25 377.31 781.88 377.31 570.94" style="fill: #333"/>
            <path d="M488.81,530V739.9l-111,41.26V571.29l111-41.26m1-1.44-113,42v212l113-42v-212Z" style="fill: #fff"/>
          </g>
          <polygon points="376.81 570.6 376.81 782.6 326.81 718.6 326.81 506.6 376.81 570.6" style="fill: #8f8f8f;stroke: #fff;stroke-miterlimit: 10"/>
        </g>
        <polygon points="489.81 528.6 376.81 570.6 326.81 506.6 439.81 464.6 489.81 528.6" style="fill: #333;stroke: #fff;stroke-miterlimit: 10"/>
      </g>
      <g>
        <g>
          <g>
            <polygon points="264.31 612.94 376.31 571.32 376.31 782.25 264.31 823.88 264.31 612.94" style="fill: #333"/>
            <path d="M375.81,572V781.9l-111,41.26V613.29l111-41.26m1-1.44-113,42v212l113-42v-212Z" style="fill: #fff"/>
          </g>
          <polygon points="263.81 612.6 263.81 824.6 213.81 760.6 213.81 548.6 263.81 612.6" style="fill: #8f8f8f;stroke: #fff;stroke-miterlimit: 10"/>
        </g>
        <polygon points="376.81 570.6 263.81 612.6 213.81 548.6 326.81 506.6 376.81 570.6" style="fill: #333;stroke: #fff;stroke-miterlimit: 10"/>
      </g>
      <g>
        <g>
          <g>
            <polygon points="151.31 654.94 263.31 613.32 263.31 824.25 151.31 865.88 151.31 654.94" style="fill: #333"/>
            <path d="M262.81,614V823.9l-111,41.26V655.29l111-41.26m1-1.44-113,42v212l113-42v-212Z" style="fill: #fff"/>
          </g>
          <polygon points="150.81 654.6 150.81 866.6 100.81 802.6 100.81 590.6 150.81 654.6" style="fill: #8f8f8f;stroke: #fff;stroke-miterlimit: 10"/>
        </g>
        <polygon points="263.81 612.6 150.81 654.6 100.81 590.6 213.81 548.6 263.81 612.6" style="fill: #333;stroke: #fff;stroke-miterlimit: 10"/>
      </g>
    </g>
  </g>
</svg>
