<svg xmlns="http://www.w3.org/2000/svg" viewBox="0 0 115.87 85.15">
    <title>Asset 1</title>
    <g id="Layer_1-2" data-name="Layer 1">
        <path d="M47.13,0A9.59,9.59,0,0,1,49,.15c5.84,2.1,11.35,4.77,15.82,9.22l.54.55c4.3,4.53,4.56,5.59,2.59,11.4A112.87,112.87,0,0,1,58.11,41.9c-1.86,3.17-3.85,6.27-5.76,9.4-.39.63-.73,1.3-1.33,2.37,1.27.06,2.15.16,3,.13A100.2,100.2,0,0,1,76.52,55.3a78.81,78.81,0,0,1,33.38,15,31,31,0,0,1,4.84,5.24,5.65,5.65,0,0,1,1.08,2.82c.36,3.29-1.91,5.6-5.32,5.27a26,26,0,0,1-4.91-1.37c-1.13-.34-2.24-.75-3.36-1.12-1.45-.49-2.94-.91-4.35-1.5a17.35,17.35,0,0,0-8-1.6,3.48,3.48,0,0,1-3.69-1.76,2.8,2.8,0,0,1,.17-3.35c.52-.63.93-1.35,1.45-2.11a9,9,0,0,0-1.42-1C78.11,66.13,69.76,62.54,60.76,61c-3.76-.65-7.65-.58-11.47-.85a4.17,4.17,0,0,0-3.86,2,79.3,79.3,0,0,1-17,16.57A36.68,36.68,0,0,1,13.91,85a6.5,6.5,0,0,1-2.52.1C9.15,84.61,6.94,84,4.71,83.43A5.69,5.69,0,0,1,.47,80.05a4.1,4.1,0,0,1,.77-4.89c3.13-3.47,6.72-5.72,11.49-6a6.91,6.91,0,0,0,3-1.15A78.06,78.06,0,0,0,37.4,47.87c7-9.38,12.21-19.75,16.45-30.64a4.24,4.24,0,0,0,0-3.47c-.83-1.77-1.73-3.52-2.68-5.23S49.07,5,48.12,3.22A19.71,19.71,0,0,1,47.13,0Z" />
    </g>
</svg>
