<svg xmlns="http://www.w3.org/2000/svg" viewBox="0 0 216.15 216.15">
  <title>Asset 1</title>
  <g id="Layer_2" data-name="Layer 2">
    <g id="Layer_1-2" data-name="Layer 1">
      <rect width="216.15" height="216.15" style="fill: #fff"/>
      <path d="M134.13,137.88s11.92,9.43,19.23,16c-.58,2.11-2.5,3.08-5.39,3.08H21l-1.54-5.58H123.94Zm62.51-14.62c-1.54,1.54-3.85,2.69-7.89,3.08-1.92,36-6,58.28-14.81,65.2-6,4.62-13.66,6.54-24.23,6.54.19-5.19-.77-9.23-4.23-11.73-3.46-2.89-12.12-5.19-20.77-6.73l.19-2.89c9,.77,24.81,1.92,29.23,1.92,3.27,0,5-.38,6.73-1.73,4.62-4,7.89-24.43,9.42-53.47H70.66l-6.15,9.62L45.28,121.34a24.58,24.58,0,0,1,5.77-5V37.68l21,8.85H83.94c1.92-7.88,4.23-19.62,5.58-27.89l28.66,6.15c-1,3.08-3.46,4.62-7.89,4.62-4.42,4.81-11.35,11.73-16.93,17.12H145.1l9.62-9.42,17.69,14.62c-1.35,1.54-3.65,2.5-7.5,3.08-1.92,26-5.39,41.74-13.08,47.31-5.58,3.85-13.27,5.19-22.69,5.19,0-4.62-.77-8.08-3.46-10.39-3.08-2.69-10.58-4.62-18.27-6V88.07c7.89.77,21.35,1.73,25.39,1.73,3.27,0,5-.38,6.54-1.54,3.46-3.08,6.15-16.35,7.5-36.16H69.13v65.78h99.43l10-9.62Z"/>
    </g>
  </g>
</svg>
