<svg xmlns="http://www.w3.org/2000/svg" viewBox="0 0 216.15 216.15">
  <title>Asset 2</title>
  <g id="Layer_2" data-name="Layer 2">
    <g id="Layer_1-2" data-name="Layer 1">
      <rect width="216.15" height="216.15" style="fill: #fff"/>
      <path d="M125.38,26.14c-.77,2.31-3.27,3.46-8.85,3.85,17.31,23.85,50.58,40.39,82.12,51l-.19,2.89C190.2,86,185,93.26,183.46,100,153.08,85.19,126,61.53,113.27,32.3,95.19,61,56.53,91.73,18.83,107.5l-1.35-2.69c33.08-19.23,69.81-58.28,78.85-86Zm28.27,90,20,15.39c-1.35,1.54-4.23,3.27-8.27,4.23v56c-.19,1.35-9.81,4.81-16,4.81h-3.27V183.08h-76v9.23c0,1.73-8.46,6-16.35,6H51.14v-80l20.19,8.46h72.89ZM134,77.69s12.5,9.62,20.19,16.73c-.58,2.12-2.5,3.08-5.19,3.08H64.41l-1.54-5.58h60Zm12.12,99.82v-45.2h-76v45.2Z"/>
    </g>
  </g>
</svg>
