<svg xmlns="http://www.w3.org/2000/svg" viewBox="0 0 216.15 216.15">
  <title>Asset 4</title>
  <g id="Layer_2" data-name="Layer 2">
    <g id="Layer_1-2" data-name="Layer 1">
      <rect width="216.15" height="216.15" style="fill: #fff"/>
      <path d="M125.86,27.1c-.77,2.5-3.27,3.46-9,4,17.12,24.81,51,41.54,82.32,52.31l-.19,2.89c-8.46,1.92-14.23,9.81-15.77,17.31-30-15.77-57.12-39.81-69.62-70.2C95.28,63.07,56,94.8,18.35,111L17,108.46C50.09,88.07,86.63,47.88,95.67,19.22Zm-39,63.47c-.38,2.5-2.11,4.42-6.35,5-.38,10.19-.77,20.39-1.92,30,48.08,16.35,32.89,50.39,15.77,37.31C92.4,152.69,85.09,141,77.59,131.73,73,157.69,60.47,181,21,198.47l-2.31-2.88C61.63,167.12,60.66,129.81,61,88.26Zm67.31.58c-.38,2.69-2.11,4.62-6.35,5.19,2.88,41,14,66.93,50.2,80.78l-.19,2.31c-8.85,2.11-14,7.12-15.39,17.89-23.46-13.85-32.31-41.16-36-75-2.89,31.35-13.08,57.12-59.81,75l-2.12-2.69c44.81-26,43.47-60.58,43.66-105.78Z"/>
    </g>
  </g>
</svg>
