<?xml version="1.0" encoding="utf-8"?>
<!-- Generator: Adobe Illustrator 21.1.0, SVG Export Plug-In . SVG Version: 6.00 Build 0)  -->
<svg version="1.1" id="Layer_1" xmlns="http://www.w3.org/2000/svg" xmlns:xlink="http://www.w3.org/1999/xlink" x="0px" y="0px"
	 viewBox="0 0 216.1 216.1" style="enable-background:new 0 0 216.1 216.1;" xml:space="preserve">
<style type="text/css">
	.st0{fill:#FFFFFF;}
</style>
<rect class="st0" width="216.1" height="216.1"/>
<title>Asset 4</title>
<g>
	<path d="M112.3,12.4c-0.2,1.2-0.9,2.1-3.2,2.5c1.9,33.2,10,54.7,40.3,67.1l-0.2,1c-4.3,0.8-7.2,3.4-8.4,8
		c-22.9-12.3-30-32.9-32.4-60.4c-1.6,22-7.9,44.6-40.3,60.7L67,90c33.6-23,33-51.4,33.1-78.9L112.3,12.4z"/>
</g>
<g>
	<path d="M162.4,110.1c-0.2,1.2-0.9,2.1-3.2,2.5c1.9,33.2,10,54.7,40.3,67.1l-0.2,1c-4.3,0.8-7.2,3.4-8.4,8
		c-22.9-12.3-30-32.9-32.4-60.4c-1.6,22-7.9,44.6-40.3,60.7l-1.1-1.3c33.5-22.8,32.8-51.2,32.9-78.7L162.4,110.1z"/>
</g>
<g>
	<path d="M62.2,110.1c-0.2,1.2-0.9,2.1-3.2,2.5c1.9,33.2,10,54.7,40.3,67.1l-0.2,1c-4.3,0.8-7.2,3.4-8.4,8
		c-22.9-12.3-30-32.9-32.4-60.4c-1.6,22-7.9,44.6-40.3,60.7l-1.1-1.3c33.5-22.8,32.8-51.2,32.9-78.7L62.2,110.1z"/>
</g>
</svg>
