<svg xmlns="http://www.w3.org/2000/svg" viewBox="0 0 216.15 216.15">
  <title>Asset 3</title>
  <g id="Layer_2" data-name="Layer 2">
    <g id="Layer_1-2" data-name="Layer 1">
      <rect width="216.15" height="216.15" style="fill: #fff"/>
      <path d="M63.55,154.42c15.77,15.77,37.12,19.23,75.78,19.23,21,0,37.89,0,59-1.15v2.31c-8.46,1.73-12.89,9-14,17.89H132.79c-39,0-55.58-8.08-72.12-31.54-2.5-3.85-4.42-3.27-6.54,0-4,6.35-13.46,20.2-19.81,30.58.58,1.73-.38,3.27-1.73,4.42L17.77,174.43c13.08-7.5,33.85-22.69,38.66-22.69h1c36-19.62,73.47-50.39,93.47-79.62H30.47l-1.73-5.58H152l11.73-10.77L182,72.68c-1.54,1.92-3.46,2.5-8.66,2.69-23.85,31.54-64.43,61-110.59,78.47ZM80.67,20C134.33,33.07,118.94,72.3,99.9,58.65,97.78,45.76,88,30.57,78.74,21.33Z"/>
    </g>
  </g>
</svg>
