<?xml version="1.0" encoding="utf-8"?>
<!-- Generator: Adobe Illustrator 21.1.0, SVG Export Plug-In . SVG Version: 6.00 Build 0)  -->
<svg version="1.1" id="Layer_1" xmlns="http://www.w3.org/2000/svg" xmlns:xlink="http://www.w3.org/1999/xlink" x="0px" y="0px"
	 viewBox="0 0 759.6 179.3" style="enable-background:new 0 0 759.6 179.3;" xml:space="preserve">
<style type="text/css">
	.st0{fill:#FFFFFF;}
	.st1{fill:none;}
</style>
<rect x="-52.5" y="246.9" class="st0" width="216.1" height="216.1"/>
<rect x="163.6" y="246.9" class="st0" width="216.1" height="216.1"/>
<rect x="379.8" y="246.9" class="st0" width="216.1" height="216.1"/>
<rect x="595.9" y="246.9" class="st0" width="216.1" height="216.1"/>
<title>Asset 3</title>
<g id="Layer_2">
	<g id="Layer_1-2">
		<g>
			<path d="M229.6,94.3c2.7-0.2,5.5-0.3,8.2-0.7c6.6-1.2,13.1-2.6,19.7-3.8c3.2-0.6,6.4-1.1,9.7-1.4c1.3-0.1,2.7,0,4,0.3
				c1.6,0.4,2,1.4,1.5,2.9c-0.4,1.6-1.7,2.8-3.4,3c-2.9,0.4-5.1,1.9-7.5,3.4c-2.5,1.4-5,2.7-7.7,3.8c-1,0.3-2,0.5-3,0.5l0.4-1.9
				c-0.6,0-1.1,0-1.7,0c-6.9,1-13.9,0.4-20.5-1.7c-2.4-0.8-2.4-0.7-4,1.2c-4.6,5.9-9.6,11.5-15,16.7c-4.7,4.8-10.7,8.2-17.2,9.8
				c-3.6,0.9-7.3,0.7-10.8-0.8c-0.4-0.2-0.9-0.4-1.3-0.6c-1.6-0.9-1.7-1.7-0.2-2.8c0.7-0.4,1.4-0.8,2.1-1.2c5.7-2.9,11.4-5.6,17-8.8
				c2.9-1.7,5.6-3.7,8-6c11.7-10.9,20.9-23.7,28.9-37.6c5-8.9,9.5-18,13.4-27.5c1-2.5,2.2-4.9,3.1-7.5c0.7-2.2,1.2-4.4,1.5-6.7
				c0.4-2.1-0.2-4.2-1.6-5.8c-0.7-0.9-1.3-1.8-1.7-2.9c-0.8-2.2,0.1-3.4,2.5-3.3c3.3,0.1,8.1,2.4,8.2,7.7c0.1,2.3-0.1,4.6-0.7,6.8
				c-1,3.7-2.4,7.2-3.8,10.8c-1.6,4.2-3.4,8.2-5.1,12.4c-0.2,0.5-0.3,1-0.5,1.6c0.3,0.2,0.4,0.4,0.6,0.5c7.8,2,14.1,6.5,20.2,11.4
				c4.1,3.3,7.9,7,11.8,10.4c8.8,7.9,18.1,15.2,27.8,21.8c7.8,5.2,16.4,9,25.4,11.2c4.7,1.2,9.4,2.6,14,4.1c1.7,0.5,3.3,1.3,4.7,2.2
				c2.1,1.3,2.1,3,0,4.3c-2.2,1.6-5,2.3-7.7,2c-8-1.1-15.8-2.8-23.6-4.9c-5.2-1.5-9.4-4.7-13.4-8.1c-8.9-7.8-17.6-15.6-26.5-23.5
				c-5.9-5.2-11.7-10.3-17.6-15.4c-2.5-2.2-4.9-4.3-7.3-6.5c-2.1-1.9-4.8-3-7.6-3.2c-3.6-0.3-5.5,0.8-6.9,4.1
				c-3.9,9-8.7,17.5-14.4,25.5c-0.8,1.2-1.6,2.3-2.4,3.5C229.4,93.9,229.4,94,229.6,94.3z"/>
			<path d="M273.7,151.2c1.2,0.9,2.2,1.6,3.1,2.4c1.2,1.1,1.2,2,0,3c-1.1,0.8-2.3,1.4-3.6,1.8c-1.8,0.4-3.6,0.6-5.4,0.6
				c-6.4-0.1-12.7,0.3-19.1,0.8c-1.3,0.1-2,0.4-2.3,1.8c-0.4,1.8-2.2,2.9-4,2.5c-3.1-0.5-5.6-1.8-7.1-4.9c-3.8-8-7.2-16.1-8.7-25
				c-0.5-3.1-0.7-6.2-0.8-9.3c-0.1-2.7,1.4-3.8,3.9-2.7s4.4,0.6,6.7,0.1c8.6-2.1,17.2-4.1,25.8-6.2c1.2-0.3,2.4-0.7,3.6-1.1
				c3.6-1.1,7.3-1.6,11.1-1.6c4.7,0,8.1,2.6,11,5.9c0.7,0.8,1.3,1.6,1.8,2.5c1.1,1.9,1.1,3.3-0.5,4.7c-2.1,1.7-3,4-4.3,6.2
				c-3.1,5.4-6.4,10.6-9.6,15.9C274.8,149.6,274.3,150.3,273.7,151.2z M235.8,127.1c0.2,0.7,0.4,1,0.5,1.4c1.5,3.4,3.1,6.8,4.4,10.3
				c1.4,3.9,2.4,7.9,3.6,11.9c0.6,1.9,0.7,2,2.7,1.7c4.6-0.7,9.3-1.3,13.9-2.1c0.8-0.2,1.6-0.7,2.1-1.4c5.9-6.7,9-14.7,10.9-23.3
				c0.5-2.2-0.3-3.2-2.6-3.2c-1.7,0.1-3.3,0.2-5,0.5l-27.2,3.7L235.8,127.1z"/>
		</g>
		<g>
			<path d="M713.7,124.8c3,0.4,5.7,0.8,8.4,1.2c7.7,1.3,15,3.5,21.7,7.7c5.5,3.5,10.2,8.2,13.7,13.8c0.9,1.3,1.5,2.8,1.9,4.4
				c1,3.3-0.9,6.7-4.2,7.7c-0.6,0.2-1.2,0.3-1.8,0.2c-3.1,0-6-0.9-8.5-2.7c-0.8-0.7-1.5-1.5-1.9-2.4c-4.1-6.4-9.2-12-15.3-16.6
				c-4.1-3.1-8.7-5.6-13.6-7.3c-0.6-0.2-1.2-0.3-2.1-0.6c-0.4,0.9-0.8,1.7-1.2,2.5c-2.2,6-5,11.7-8.3,17.2
				c-3.1,5.1-7.3,9.5-12.3,12.9c-3.3,2.2-6.4,4.8-9.8,6.7c-5.9,3.5-12.7,5.4-19.6,5.4c-1.7,0-3.3,0.1-4.8-1.1
				c-0.8-0.4-1.7-0.7-2.6-0.9c0.7-0.9,1.4-1.7,2.2-2.4c4.4-3.7,9.2-6.9,14.2-9.6c12.8-6.4,22.3-16.2,29.1-28.7
				c6-11.2,9.9-23.4,11.4-36c0.8-5.9-0.6-11.9-3.9-16.9c-1.9-2.9-0.7-4.1,2.4-4.4c3.5-0.4,7.1,0.8,9.5,3.5c0.9,0.9,1.7,1.9,2.5,2.8
				c1.1,1.3,1.6,3,1.2,4.6c-1.1,9.2-2.7,18.3-4.9,27.2c-0.8,3.1-1.8,6.1-2.7,9.2C714.2,123,714,123.8,713.7,124.8z"/>
			<path d="M681.4,4.3c0.6,0,1.2,0,1.7,0.1c5.4,2,10.6,4.4,14.7,8.6l0.5,0.5c4,4.2,4.2,5.2,2.4,10.6c-2.4,6.7-5.4,13.1-9.1,19.1
				c-1.7,3-3.6,5.8-5.4,8.8c-0.4,0.6-0.7,1.2-1.2,2.2c1.2,0,2,0.2,2.8,0.1c7-0.3,14,0.1,20.9,1.4c11.3,2.2,22,7,31.1,14
				c1.7,1.4,3.2,3.1,4.5,4.9c0.6,0.8,0.9,1.7,1,2.6c0.3,3.1-1.8,5.2-5,4.9c-1.6-0.3-3.1-0.7-4.6-1.3c-1-0.3-2.1-0.7-3.1-1
				c-1.3-0.5-2.7-0.8-4-1.4c-2.3-1.1-4.8-1.6-7.4-1.5c-1.4,0.3-2.8-0.4-3.4-1.6c-0.6-1-0.6-2.2,0.2-3.1c0.5-0.6,0.9-1.3,1.3-2
				c-0.4-0.4-0.8-0.7-1.3-1c-7.7-3.4-15.5-6.7-23.9-8.2c-3.5-0.4-7.1-0.7-10.7-0.8c-1.5-0.1-2.8,0.6-3.6,1.9
				c-4.5,5.9-9.8,11.1-15.8,15.5c-4,2.9-8.6,4.9-13.5,5.8c-0.8,0.2-1.6,0.2-2.3,0.1c-2.1-0.4-4.2-1-6.2-1.5c-1.8-0.3-3.2-1.5-4-3.1
				c-0.8-1.5-0.5-3.4,0.7-4.6c2.9-3.2,6.2-5.3,10.7-5.5c1-0.1,2-0.5,2.8-1.1c7.8-4.9,14.7-11.3,20.1-18.8
				c6.4-8.8,11.5-18.4,15.3-28.5c0.5-1,0.5-2.2,0-3.2c-0.8-1.6-1.6-3.3-2.5-4.9s-2-3.3-2.9-4.9C681.9,6.4,681.6,5.4,681.4,4.3z"/>
			<path d="M669.1,114.4c0.7,0.2,1.2,0.4,1.7,0.5c4.3,0.8,8.5,2.3,12.3,4.4c1.5,0.8,3,1.6,4.3-0.6c0.8,2,1.4,3.7,2.1,5.3
				s1.6,3.3,2.4,4.9c0.3,0.7,0.4,1.4,0.5,2.1c0.3,3.9-2.9,6.6-6.7,5.4c-1.6-0.5-3.1-1.2-4.5-2.1c-2.7-2-5.1-4.3-7.7-6.4
				s-4.8-4.2-7.2-6.2c-0.6-0.4-1.2-0.7-1.8-1c-0.5,0.8-1,1.4-1.4,2c-4.3,6.8-8.5,13.6-13.7,19.8c-4.7,5.8-10.6,10.7-17.2,14.1
				c-5.4,2.6-11.4,3.7-17.4,3.1c-0.4-0.1-0.8-0.2-1.2-0.4c0.5-0.8,1-1.5,1.6-2.1c3.1-2.6,6-5.4,9.3-7.8c8.2-5.9,15.6-12.9,22-20.8
				c7.8-9.6,14-20.4,18.3-32c1.8-4.8,1.4-9.2-1.8-13.3c-0.5-0.7-1.5-1.3-0.8-2.2c0.6-0.9,1.8-1.2,2.8-0.7c2.9,1.3,5.9,2.4,8.6,4.2
				c4.1,2.8,5.7,6.9,4.2,11.7c-1.1,3.2-2.5,6.4-4.1,9.4c-1.2,2.5-2.7,4.8-4.1,7.3C669.5,113.4,669.3,113.9,669.1,114.4z"/>
		</g>
		<g>
			<path d="M59.1,61.1c-2.5,1.7-4.7,3.3-7,4.7c-2.8,1.8-6.1,2.8-9.5,2.9c-0.7,0-1.4,0.2-2,0.6c-2.5,1.4-6.9-0.7-7.2-3.6
				c-0.2-0.8,0.3-1.7,1.1-1.9c1.3-0.4,2.1-1.4,3-2.3c1.1-1.2,2.2-2.3,3.5-3.2C56.6,46.8,68.5,31.1,75.3,13c1.1-2.8,1.5-5.3,0-8
				c-0.4-0.8-0.6-1.6-0.7-2.5c-0.3-2,0.4-2.8,2.4-2.4c4.3,0.7,8.1,3.2,10.5,6.8c2.7,4.1,3,8.2,0.4,12.5c-3.9,6.4-7.6,12.9-11.4,19.3
				c-0.4,0.7-0.7,1.3-1.4,2.5c0.8-0.1,1.7-0.2,2.5-0.4c6.1-1.8,12.3-3.5,18.3-5.3c5.4-1.7,11.8,3,11.8,8.9c0,2.5-0.2,4.9-0.6,7.4
				c-1.6,14-3.7,27.9-7.7,41.5c-0.5,1.7-1,3.3-1.5,5c0,0.1,0,0.2,0.1,0.5c0.6,0,1.1,0,1.7-0.1c7.7-1.5,15.4-2.3,23.2-2.4
				c2.9,0,5.7,0.4,8.4,1.4c5.1,1.9,7.8,5.7,8.3,11c0.3,3.5-0.1,7-1.1,10.3c-4.5,14-9.4,27.8-16.1,40.9c-2,4.3-4.5,8.4-7.5,12.2
				c-1.5,1.8-3.3,3.5-5.2,4.9c-3,2.3-7.1,2.9-10.6,1.6c-4.5-1.6-8.8-3.8-12.6-6.6c-0.8-0.5-1.6-1.1-2.3-1.6l-17.4-12.3
				c-0.5-0.4-1-0.8-1.6-1.2c0.8-1,1.8-0.5,2.4-0.3c2.6,0.9,5.2,1.9,7.8,3c4.5,1.8,9,3.7,13.5,5.5c3.8,1.4,7.9,1.9,12,1.4
				c3.2-0.3,6.2-2.1,7.8-4.9c3.5-5.4,6.6-11.1,9.3-17c3.9-8.5,6.9-17.3,9-26.4c0.5-2.5,0.9-5,1-7.5c0.1-2.5-0.8-3.9-3.3-4.5
				c-2.4-0.6-4.8-0.9-7.3-0.9c-18.2,0.7-35.8,4.9-53,10.4c-1.6,0.5-3.1,1.2-4.5,2.1c-2.4,1.5-5,0.6-5.4-2.3
				c-0.2-1.8-0.2-3.7,0.1-5.5c1.5-14.2,3.1-28.3,4.5-42.5C59.2,65.4,59.2,63.2,59.1,61.1z M95.9,43.2c-2.3,0.6-4.1,0.9-5.9,1.5
				c-6.9,2.1-13.7,4.2-20.5,6.2c-2.4,0.7-2.7,1.1-2.1,3.6c0.9,4.6,1,9.3,0.4,14c-0.4,4.5-0.8,9-1.2,13.5c-0.3,3.3-0.5,6.7-0.8,10
				c-0.3,3.2-0.7,6.3-1,9.5c-0.1,1.6,0,3.1,0,5c5.5-1.2,10.7-2.5,16.2-4.3c-0.9-2.3-1.7-4.4-2.6-6.4s-1.8-4.2-2.7-6.4
				s-1.9-4-2.8-6.1s-2.3-3.9-2.5-6.3c0.5,0.4,1,1,1.4,1.5c2,2.6,4,5.3,7.3,6.4l7,2.2c1.3,0.5,2.7-0.2,3.2-1.4c0.5-1,1-2,1.4-3
				c1.7-3.8,1.9-7.9,2.4-11.9c1.1-7.9,2-15.8,2.9-23.7C96,46,96,44.6,95.9,43.2z"/>
			<path d="M15.4,146.2c-4.1-0.3-8.1-1.2-12-2.6c-1-0.4-1.8-1-2.5-1.7c-1-0.8-1.2-2.2-0.4-3.2c0.2-0.3,0.5-0.5,0.9-0.7
				c0.7-0.4,1.4-0.7,2.2-0.8c20.4-3.6,40.8-7.2,61.1-10.8c8.9-1.6,17.9-2.9,26.9-4.4c2.9-0.5,5.9-0.1,8.7,1c1.4,0.5,2.7,1.5,3.4,2.9
				c1.2,2.3,0.4,4.6-2.1,5.4c-1.7,0.5-3.4,0.7-5.2,0.8c-3.7,0.1-7.3,0-11,0.2c-12.5,0.6-25,1.5-37.2,4.4c-4.5,1.1-8.9,2.5-13.2,4.2
				c-5.6,2-11.2,4.1-17.1,5.1C17,146.1,16.1,146.1,15.4,146.2z"/>
		</g>
		<g>
			<path d="M423.7,113.9c3,1.1,5.8,2.1,8.6,3.2c13.7,5.2,27.4,10.5,41.3,15c11.3,3.8,23.1,6,35.1,6.5c9.2,0.3,18.5,0.5,27.7,0.3
				c7.5-0.2,14.9-1.2,22.3-1.9c4.2-0.4,8.3-0.3,12.1,1.7c0.6,0.3,1.4,0.4,2,0.7c0.7,0.3,1.1,1.1,0.8,1.8c-0.1,0.2-0.2,0.5-0.4,0.6
				c-0.4,0.5-1,0.8-1.5,1.1c-2.1,1.1-4.3,2-6.6,2.7c-5.9,1.6-11.9,2.9-17.9,4.3c-4.3,1-8.5,2.1-12.8,2.9c-10.5,2-21.4,1.5-31.6-1.6
				c-6.3-1.9-12.8-3.1-19.2-4.7c-16.1-4-31.8-9.1-47.2-15.4c-5.7-2.3-11.5-4.3-17.6-5c-2-0.1-4-0.1-5.9,0.2
				c-2.5,0.3-4.9,0.8-7.3,1.1c-0.8,0.1-1.6,0.1-2.4,0c-3.7-0.5-5-2-4.7-5.8c0.1-2.2,1-4.2,2.6-5.7c3.2-3.1,7.3-4.9,11.8-5.2
				c3.2-0.1,6.3-0.5,9.5-0.8c1-0.1,2-0.3,2.6,0.7s0,1.8-0.8,2.5C424,113.5,423.8,113.7,423.7,113.9z"/>
			<path d="M434.6,108.7c0-1.3,0.7-2.6,1.8-3.4c1.9-1.8,3.9-3.5,6-5.1c8.2-5.7,17-10.3,26-14.7c11.6-5.7,23.1-11.5,34.6-17.2
				c2-1.1,3.8-2.3,5.6-3.6c0.7-0.6,1.4-1.3,2-2c-0.7-1.5-1.8-1.4-2.9-1.4c-5.7-0.1-11.3,0.5-16.8,1.8c-11.6,2.5-22.5,6.8-33.4,11.3
				c-5.4,2.2-10.7,4.5-16.1,6.5c-2.9,1.1-5.9,1.8-9,2.3c-4.4,0.7-8.9-0.3-12.5-2.8c-2.9-1.8-4.8-4.8-5.5-8.1c-0.5-1.9,0.1-2.9,2-3.4
				c1.5-0.4,3-0.2,4.4,0.5c2.3,1.1,4.7,2,7.1,2.7c1.1,0.2,2.2,0.2,3.3-0.2c4.5-1.1,8.9-2.4,13.3-3.6c7.3-1.9,14.6-4,22-5.7
				c10.7-2.6,21.6-4.1,32.6-4.7c4.5-0.2,9.1-0.4,13.6-0.4c3.2,0,6.3,0.9,9.1,2.6c2.8,1.4,4.4,4.4,4.1,7.5c-0.2,4.8-2.4,8.4-7,9.7
				c-5.4,1.6-10.4,4-15.5,6.2c-11.1,4.7-22.4,9.1-33.5,14c-8.5,3.9-17.6,6.7-26.8,8.2c-1.2,0.3-2.3,0.7-3.3,1.4
				C438.1,108.3,436.4,108.8,434.6,108.7z"/>
			<path d="M459.2,49.3c-0.1-2.4,0.9-3.8,1.9-5.3c2.1-3,2.2-4.2-0.1-7c-2-2.2-4.1-4.4-6.4-6.4c-0.8-0.8-1.7-1.5-2.5-2.3
				c-0.5-0.4-0.6-1.2-0.2-1.7c0.1-0.1,0.3-0.3,0.5-0.3c0.6-0.4,1.4-0.7,2.2-0.9c6.1-0.5,12.3-0.5,18.1,1.8c2,0.9,3.9,1.9,5.7,3
				c4.5,2.7,6.6,6.8,7,11.8c0.2,3.6,0.1,7.1-0.4,10.7c-0.7,4.8-5.2,8.2-10,7.5c-0.3,0-0.6-0.1-0.9-0.2c-1.1-0.1-2.1-0.9-2.4-2
				c-0.7-2.9-3.1-4.8-4.4-7.3c-0.7-1.3-2.2-1.3-3.6-1.4L459.2,49.3z"/>
		</g>
	</g>
</g>
<rect x="-52.5" y="-18.4" class="st1" width="216.1" height="216.1"/>
<rect x="163.6" y="-18.4" class="st1" width="216.1" height="216.1"/>
<rect x="379.8" y="-18.4" class="st1" width="216.1" height="216.1"/>
<rect x="595.9" y="-18.4" class="st1" width="216.1" height="216.1"/>
<path d="M81.6,384.8c0,0,11.9,9.4,19.2,16c-0.6,2.1-2.5,3.1-5.4,3.1H-31.5l-1.5-5.6H71.4L81.6,384.8z M144.1,370.2
	c-1.5,1.5-3.8,2.7-7.9,3.1c-1.9,36-6,58.3-14.8,65.2c-6,4.6-13.7,6.5-24.2,6.5c0.2-5.2-0.8-9.2-4.2-11.7c-3.5-2.9-12.1-5.2-20.8-6.7
	l0.2-2.9c9,0.8,24.8,1.9,29.2,1.9c3.3,0,5-0.4,6.7-1.7c4.6-4,7.9-24.4,9.4-53.5H18.2L12,380l-19.2-11.7c1.3-1.7,3.7-3.7,5.8-5v-78.7
	l21,8.8h11.9c1.9-7.9,4.2-19.6,5.6-27.9l28.7,6.2c-1,3.1-3.5,4.6-7.9,4.6c-4.4,4.8-11.3,11.7-16.9,17.1h51.7l9.6-9.4l17.7,14.6
	c-1.3,1.5-3.7,2.5-7.5,3.1c-1.9,26-5.4,41.7-13.1,47.3c-5.6,3.8-13.3,5.2-22.7,5.2c0-4.6-0.8-8.1-3.5-10.4c-3.1-2.7-10.6-4.6-18.3-6
	V335c7.9,0.8,21.3,1.7,25.4,1.7c3.3,0,5-0.4,6.5-1.5c3.5-3.1,6.2-16.3,7.5-36.2H16.6v65.8H116l10-9.6L144.1,370.2z"/>
<path d="M289,273.1c-0.8,2.3-3.3,3.5-8.8,3.8c17.3,23.8,50.6,40.4,82.1,51l-0.2,2.9c-8.3,2.1-13.5,9.4-15,16.2
	c-30.4-14.8-57.5-38.5-70.2-67.7c-18.1,28.7-56.7,59.4-94.4,75.2l-1.3-2.7c33.1-19.2,69.8-58.3,78.9-86L289,273.1z M317.3,363.1
	l20,15.4c-1.3,1.5-4.2,3.3-8.3,4.2v56c-0.2,1.3-9.8,4.8-16,4.8h-3.3V430h-76v9.2c0,1.7-8.5,6-16.3,6h-2.7v-80l20.2,8.5h72.9
	L317.3,363.1z M297.7,324.6c0,0,12.5,9.6,20.2,16.7c-0.6,2.1-2.5,3.1-5.2,3.1H228l-1.5-5.6h60L297.7,324.6z M309.8,424.5v-45.2h-76
	v45.2H309.8z"/>
<path d="M443.3,401.4c15.8,15.8,37.1,19.2,75.8,19.2c21,0,37.9,0,59-1.2v2.3c-8.5,1.7-12.9,9-14,17.9h-51.5
	c-39,0-55.6-8.1-72.1-31.5c-2.5-3.8-4.4-3.3-6.5,0c-4,6.3-13.5,20.2-19.8,30.6c0.6,1.7-0.4,3.3-1.7,4.4l-14.8-21.7
	c13.1-7.5,33.9-22.7,38.7-22.7h1c36-19.6,73.5-50.4,93.5-79.6H410.2l-1.7-5.6h123.3l11.7-10.8l18.3,16.9c-1.5,1.9-3.5,2.5-8.7,2.7
	c-23.8,31.5-64.4,61-110.6,78.5L443.3,401.4z M460.4,266.9c53.7,13.1,38.3,52.3,19.2,38.7c-2.1-12.9-11.9-28.1-21.2-37.3
	L460.4,266.9z"/>
<path d="M721.8,274.1c-0.8,2.5-3.3,3.5-9,4c17.1,24.8,51,41.5,82.3,52.3l-0.2,2.9c-8.5,1.9-14.2,9.8-15.8,17.3
	c-30-15.8-57.1-39.8-69.6-70.2c-18.3,29.6-57.5,61.4-95.2,77.5l-1.3-2.5c33.1-20.4,69.6-60.6,78.7-89.2L721.8,274.1z M682.7,337.5
	c-0.4,2.5-2.1,4.4-6.3,5c-0.4,10.2-0.8,20.4-1.9,30c48.1,16.3,32.9,50.4,15.8,37.3c-1.9-10.2-9.2-21.9-16.7-31.2
	c-4.6,26-17.1,49.2-56.5,66.7l-2.3-2.9c42.9-28.5,41.9-65.8,42.3-107.3L682.7,337.5z M750.1,338.1c-0.4,2.7-2.1,4.6-6.3,5.2
	c2.9,41,14,66.9,50.2,80.8l-0.2,2.3c-8.8,2.1-14,7.1-15.4,17.9c-23.5-13.8-32.3-41.2-36-75c-2.9,31.3-13.1,57.1-59.8,75l-2.1-2.7
	c44.8-26,43.5-60.6,43.7-105.8L750.1,338.1z"/>
<rect x="-15.6" class="st0" width="179.3" height="179.3"/>
<rect x="-34.1" y="-18.4" class="st0" width="216.2" height="216.2"/>
</svg>
