<svg xmlns="http://www.w3.org/2000/svg" viewBox="0 0 394.93 399.69">
  <title>Asset 12</title>
  <g id="Layer_2" data-name="Layer 2">
    <g id="Layer_1-2" data-name="Layer 1">
      <g>
        <path d="M227,61.91s5.16,14.37,7.93,23.85c-1.41,1.27-3.25,1.06-5.48-.37L171.87,48.3l-17.06,26.5c52.52,52.34,26.42,83.09,14,64.42,0-17.53-7.78-43.08-15.94-61.36L102.3,156.41c-.63,1-7.3,1.22-14.13-3.18l-2.51-1.62L157.93,39.33,104.36,4.85,105.71,0,210.47,67.42Z"/>
        <path d="M34.95,312.43l3.39-64.48L0,245.93l8.13-55.06c6.05,1.19,10.18,5.78,11.33,17.2l20.91,1.1,3.07-58.38L3.36,148.69,11.5,93.63c6.05,1.19,9.77,5.32,10.94,16.3l23.09,1.21L46.9,85,22.75,62.33s18.68-23,33-38c4.73,1.56,6.68,6,6.36,12.13l-4,75.37,13.07.69c2.62.14,6.52,17.38,5.69,33.06l-.37,7-20.48-1.08L53,209.84l20,1.05c2.62.14,7,17,6.17,32.22l-.37,7L51,248.61l-3.21,61Z"/>
        <path d="M323.9,361.63s16.77,19.95,27.07,34.45c-1.89,3.44-6,4.22-10.31,3.18l-217.6-52.38-.34-10.34L219,359.71l7.81-32.42-74.54-17.94-.42-10L229,317.93l7.24-30.09-38.11-9.17L197.6,281c-.72,3-15.62,6.14-28,3.16l-4-1L192.39,171.9l28.28,20.6,36.43,8.77,4.83-20.06L178.38,161.1,178,150.76l86.24,20.76,5.23-21.72c-24.31-4.79-49-10.75-71.86-17.3l.19-6.67c56.71,9.76,127.46,14.06,166,11.3l21.29,32c-3.65,1.95-10.34.34-18-4.68A651.56,651.56,0,0,1,300,155.37l-5.63,23.4,51.48,12.39,23.36-17.71s15.77,19.71,25.73,34.13c-1.89,3.43-5.3,4.38-10.31,3.17L292,188.46l-4.83,20.06,36.1,8.69,18.08-11.92,25.2,30.47c-2.24,1.93-7.56,3.49-13.48,3.12l-17,70.53c-.82,1.92-17.31,4.32-27,2l-5.35-1.29,1.37-5.69-38.78-9.33-7.24,30.09,37.77,9.09,21.78-17s16.52,19.54,25.64,33.05c-1.48,3.18-4.88,4.13-9.9,2.92l-77.55-18.67L249.06,367l51.14,12.31ZM216.67,201.79l-6.84,28.41,38.11,9.17L254.78,211Zm21.93,76.36,7-29.08L207.5,239.9l-7,29.08Zm46.26-59.95L278,246.62,316.8,256l6.84-28.41Zm22.6,76.52,7-29.08-38.78-9.33-7,29.08Z"/>
        <path d="M154,170.47l6.17-1.7V318l16.18,13.2s-10.86,15.11-18.95,24.27c-2.34-.64-3.4-3-3.4-6v-99l-11.92,22.56c-1.92-1.06-3.41-4-2.56-8.51-11.49-14-25.54-39.38-35.55-61.94,1.06,26.61,3.4,66.84,6.38,109.62a267.37,267.37,0,0,0,27.25-30.44l1.92,2.13C118.49,364.17,70.17,355,82.73,332c7.24-3.4,15.11-8.94,22.56-15.32C99.55,286.9,92.52,245,85.07,194.52A13.67,13.67,0,0,1,80,189l24.27-10a59.56,59.56,0,0,0,1.7,7.45c8.73,20.22,33.63,48.1,48.11,59.6Z"/>
        <path d="M332,63.48c-1.52,1.22-3.16,1.26-5.66-.59-9.59,9.71-19.71,20.17-30.87,29.28,9.6,37.92-16.52,49.51-17.85,32.78,5.74-7.34,9.83-18.37,12.58-28.73-18.42,13.58-40.13,23.14-68.17,20.29L222,114c43.87-4.65,72-36.23,98.4-63.85Z"/>
      </g>
    </g>
  </g>
</svg>
