<svg xmlns="http://www.w3.org/2000/svg" viewBox="0 0 206.81 220.06">
  <title>Asset 13</title>
  <g id="Layer_2" data-name="Layer 2">
    <g id="Layer_1-2" data-name="Layer 1">
      <g>
        <path d="M47.71,217.56c33.71-26.64,42.87-64.51,45.16-99.68H54l-1.87-6h41.2c.41-7.7.41-15.19.41-22.06V65.65l26.43,2.7c-.62,2.7-2.08,4.79-7.28,5.62V90.21c0,6.66-.21,14.15-.83,21.64h35L157.8,101l19.35,16.23c-1.67,1.87-4.16,3.12-8.53,3.75-1.87,53.9-6,82-15.81,90.94-6.24,5.62-14.36,8.12-25,8.12,0-6-.83-10.82-4-13.53-3.12-3.12-10.82-5.62-19.35-7.28l.21-3.12C113.05,197,127,198,131.16,198c3.54,0,5.41-.42,7.28-2.29,5.83-5.2,9.16-32.88,10.61-77.83H111.6c-3.54,37.66-16,79.08-61.6,102.18Z"/>
        <path d="M26.41,4.39,52.35,0c.38,3-.72,5.53-5.88,7.83L68.33,88.17c11.4,42.71,10.92,82.65-21.91,116.49L43.52,203c20.3-33.32,18-69.61,7-110Z"/>
        <path d="M47.28,145.71c.51,1.86-5.78,7.36-12.2,9.1l-3.31.9L0,38.93l24.9-4.11c.32,2.81-.78,5.33-5.78,7.36Z"/>
        <path d="M173.6,70.06c-1.67,14.45,7.58,28,21.23,41.5l-.72.86c-3.76-1.71-7.73-.79-11.45,2.2-12-15.61-16.55-29-10.77-46l-.93-.79c-11.33,7.9-24.7,8.74-55.67-9.52l.57-1.78c24.59,11.29,36.84,10.83,46.77,4.28L134.68,37.21l1.22-2.71L165,59.07A90.08,90.08,0,0,0,174,50.36l10.25,10.12c-1.08,1-2.66,1.09-4.5-.2q-3.31,3.21-6.45,5.75L194.67,84.1l9.45-1.89s1.87,8.37,2.68,13.72c-1,.66-2.06.39-3.23-.59Z"/>
      </g>
    </g>
  </g>
</svg>
