<?xml version="1.0" encoding="utf-8"?>
<!-- Generator: Adobe Illustrator 21.1.0, SVG Export Plug-In . SVG Version: 6.00 Build 0)  -->
<svg version="1.1" id="Layer_1" xmlns="http://www.w3.org/2000/svg" xmlns:xlink="http://www.w3.org/1999/xlink" x="0px" y="0px"
	 viewBox="0 0 380.9 533" style="enable-background:new 0 0 380.9 533;" xml:space="preserve">
<title>Asset 10</title>
<g id="Layer_2">
	<g id="Layer_1-2">
		<g>
			<g>
				<path d="M52.9,450.4c-1.4,0.9-2.9,1-5.5-1c-12,3.9-30.1,5.3-47,2.3L0,449.6c15.1-1.7,32-8.1,41.8-15.1L52.9,450.4z"/>
				<path d="M126.2,454.9c0,0,5.5,10.4,8.6,17.4c-1.1,1.3-2.8,1.2-4.4,0.5l-49-23.3L71,471.4c-4,8.6-8.6,12.8-24.3,6.9
					c1.4-3.7,2.1-6.9,1.1-9.5s-3.4-5.5-9.1-9.3l0.9-1.8c0,0,12.4,7,15.2,8.4c2.1,1,3.1,0.5,3.8-0.9l10.3-21.6l-50.8-24.2l0.7-4.2
					l95.4,45.4L126.2,454.9z"/>
				<path d="M119.7,432.1c0,0,4.9,9.6,7.9,16.2c-1,1.3-2.6,1.4-4.5,0.4l-82-39l0.8-4.3l66.9,31.8L119.7,432.1z"/>
				<path d="M90.5,460.6c40.9,25.4,24,50.4,12.6,38c-0.8-11.2-8-27.1-14.2-37.4L90.5,460.6z"/>
			</g>
			<path d="M126.7,149.2c-7.2,7.2-16.2,16-27.5,26.6l16.8,67.3c4.1,16.3,3.4,27.2-22.6,36.6c-2.6-7.6-5.2-13.1-9.3-16
				c-4.4-3-10.3-4.3-21.3-3.5l-0.9-3.4c0,0,23.1-4,27.9-5.2c3.9-1,4.8-2.4,4-5.6l-13.2-52.8c-5.8,5.1-12,10.6-18.4,16
				c-0.2,3-1.8,5.8-4.2,7.6l-15.8-24c7-3.2,19-9.9,33.8-18.2l-12.7-51l-33.5,8.4l-3.5-6.2l35.3-8.8l-13.2-53l30.6-4.4
				c0.4,3.6-1.4,6.2-6.7,8.5l10.9,43.6l4.4-1.1L95,90.8c0,0,16.2,8.2,25.6,14.6c-0.1,2.7-2.1,4.4-5.3,5.2l-30.5,7.6l11.2,45
				c9.5-5,19.5-10.9,29-16.5L126.7,149.2z"/>
			<path d="M304.8,312.6c0.2,0.4,0.4,0.8,0.4,1.2c4.3,15.9,15.6,25.3,38.9,37.8c12.7,6.9,23.3,12.7,36.8,19.1l-0.8,1.5
				c-5.3-1.5-10.3,1-13.5,5.6l-31.8-17.4c-23.3-12.7-30.8-23.8-33.3-43.8c-0.4-3-1.7-3.4-4.3-2.3c-4.7,2.4-17,7.5-24.9,11.4
				c-0.3,1.3-1.4,2.3-2.7,2.4l-1.7-17.6c7.3,0,17.4-1.1,25-1.5l22.7-41.6l-16.3-8.9l1.2-4l15.2,8.3l10-4.4l7.1,17.1
				c-1.5,0.5-3.8,0.4-7.4-0.8L304.8,312.6z"/>
			<path d="M250.5,221.6c53.8,18.3,39.3,55.3,21,42.2c-3.5-13.5-14.5-29.9-23.1-40.9L250.5,221.6z"/>
			<path d="M147.1,377.1c-3.3,8.9-9.8,26.7-18.7,45.7c0.1,3.2-0.9,6.4-2.9,8.9l-16.8-14.6c5.6-5.6,6.2-7.3,5.2-10.9L91.9,333
				l-22.5,6.8l-3-4.5l24.4-7.3l5.1-9.8l17.8,7.4c-0.5,1.5-2.2,3.5-5.7,5.3l20,66.7c5.5-6.7,11.4-14.3,17.2-21.8L147.1,377.1z"/>
			<path d="M66.5,285.7c46.3-1.7,43.4,31.7,25.1,26.2c-5.6-9.2-17.4-18.8-26.6-24.4L66.5,285.7z"/>
			<path d="M272.6,405.3c0.2,2.3-1.1,3.9-5,5.9c0.4,14.7-0.8,29.5-3.7,43.9c50.3-19,62.7,14.1,42.1,16.9c-10.8-6.3-29-10.4-43.2-12
				c-6.1,26-18.1,49.5-34.7,72.9l-2.7-1.5c19.5-36.9,29.6-75.6,22.4-122.6L272.6,405.3z"/>
			<path d="M220.4,354.3c0,0,14.2,0.4,23.2,1.5c0.8,1.9-0.1,3.7-2.2,5.2l-55.1,41l17.7-5.4c0.5,1.9-0.1,4.1-3.2,6.2
				c-1.1,12.9-5.4,31.1-10.7,45.6c8.2-6.4,19.8-15.5,32.1-25.1c-1-9.1-2.4-18.2-4.4-27.2l23.8-4.4c0.3,2.2-0.8,4-4.6,6.1
				c3.2,38.5-4.4,72.9-23,106l-2.7-1.5c8.6-22.9,12.4-47.3,11.2-71.7c-6.9,8.7-15.8,19.4-25.5,30.3c0.2,2.2-0.4,4.3-1.8,6
				l-16.6-11.4c1.2-1.3,2.2-2.7,3.1-4.3c3.7-11.5,2.3-33.8-0.4-45.6l-29.6,22.1l-4.3-3.3l72.7-54.3L220.4,354.3z"/>
			<path d="M162.4,374.3c39.5-18.1,45.4,15.8,25.6,15.6c-6.6-6.5-17.8-11.6-26.3-13.7L162.4,374.3z"/>
			<path d="M172.3,200.6l37.9-15.1c1.5,4.3,0.4,8.6-6.6,13.3l64.7,123.7c1.4,2.6-7,13.2-16.8,18.3l-4.6,2.4l-24.8-47.5
				c-7.1,14.4-16,31.8-27.7,52.2c1.1,3.7,0.3,7.7-2.1,10.6l-30.9-20.5c10-8.9,31.8-30.2,54.9-53.3l-20.5-39.1l-57.6,30.1l-7-7
				l60.1-31.5L172.3,200.6z"/>
			<path d="M280.9,23.1l-7.9,34.5l22.9,5.2l11.5-8.6L325,74.8c-1.7,1.5-5.3,2.6-9.7,2.5l-18.7,82.3c-3.2,14.2-7.5,21.4-28.6,18.7
				c1.1-5.8,1.8-11,0.7-14.3c-1.3-3.4-4-6.1-9.8-8.5l0.8-3.3c0,0,10.5,3.1,13.4,3.8c3.1,0.7,4-0.2,4.6-2.9l19-83.4l-25.1-5.7
				l-30.5,133.8c-0.4,1.6-7.8,4.5-18,2.2l-3.3-0.8l31.8-139.8l-25.1-5.7l-23.9,104.7c-0.3,1.3-7.6,4.8-17.4,2.6l-3.1-0.7l28.7-125.8
				l19.8,13.6l22.4,5.1l7.8-34.5L209.5,6.8L209.2,0l98.3,22.4l15.6-13c0,0,11.3,14,17.3,23.6c-1,2.3-3.5,3-6.6,2.2L280.9,23.1z"/>
		</g>
	</g>
</g>
<path d="M130.4,9.9l25.9-4.4c0.4,3-0.7,5.5-5.9,7.8l21.9,80.3c11.4,42.7,10.9,82.7-21.9,116.5l-2.9-1.7c20.3-33.3,18-69.6,7-110
	L130.4,9.9z"/>
<path d="M151.3,151.2c0.5,1.9-5.8,7.4-12.2,9.1l-3.3,0.9L104,44.4l24.9-4.1c0.3,2.8-0.8,5.3-5.8,7.4L151.3,151.2z"/>
</svg>
