<svg xmlns="http://www.w3.org/2000/svg" viewBox="0 0 91.38 272.23">
  <title>Asset 11</title>
  <g id="Layer_2" data-name="Layer 2">
    <g id="Layer_1-2" data-name="Layer 1">
      <g>
        <path d="M15,60c15.13,29.41,15.66,54.32,9.71,67.05C20.57,136,9.24,140,3,133.7c-4.95-5.55-3.43-13.79,2-19.9,5.73-10,9.5-34.05,5-53.06Z"/>
        <path d="M59.19,0c0,4.46-1.89,7.7-9.31,9.93L85,260.5c.45,3.21-9.35,9.64-19.27,11l-5,.7-38-271Z"/>
        <path d="M59.71,41.87C108.54,57,91.16,94.26,71.95,80.3,70.48,67.72,63.06,53,56.41,43.82Z"/>
      </g>
    </g>
  </g>
</svg>
