<svg xmlns="http://www.w3.org/2000/svg" viewBox="0 0 463.25 526.31">
  <title>Asset 14</title>
  <g id="Layer_2" data-name="Layer 2">
    <g id="Layer_1-2" data-name="Layer 1">
      <g>
        <path d="M227,226.53c-9.26,31.47-8.14,71.06,24.73,113.08l-1.21,1.64c-8-2.76-14.64-1.24-20.48,6.15-25.21-41.5-18.5-84.26-7.66-116.63-10.25,14.94-22.53,28.29-39.2,38.08,30.07,34.56,2.28,55.07-5.46,35.86,3.3-9.44,3.18-22.88,1.84-33.93-18.63,9.92-42.33,15.37-74.39,13.92l-.57-3.31c57-4.89,85.11-30.89,105.79-63.32l-54.46-27.76,1-4.95L213,214c7.46-12.41,14.17-25.58,21-38.9l20.1,13.07c-1.37,1.94-3.48,2.75-7.52,1.44-5.87,10.77-11.74,21.91-18.28,32.15l36.06,18.38L280,233s6.51,13.49,10.26,22.76c-1.29,1.42-3.31,1.33-5.56.18Z"/>
        <path d="M322,505.61c1,1.8-4.16,11.35-16.78,18.29l-4.38,2.41-84.17-153,34.17-4.38L363.6,306.88l4.66-22,35.5,6c-.53,3.31-2.11,6.53-7.61,10.56l67,121.82c.85,1.55-4.93,11.77-17.81,18.86l-4.64,2.55L368.45,313.27,251.53,377.61Z"/>
        <path d="M150.24,100.58,71.38,292.89c-.92,1.38-12.45,3-26.27-2.7L40,288.09,121.7,88.88,0,39l.87-9.82,124.4,51L139.69,45c-34.09-11.87-68.9-25.44-101-39.65L40.2,0c71.8,23.48,165.11,44.19,216,49.27l16.06,39.58c-4.11,1.47-10.85-.94-17.66-8.29C229.84,74.25,200.48,65.37,169,54.91l-15.16,37,75.72,31.05,27.27-15.14s14.45,23.83,22.51,40.12c-2,3.06-5.88,3.2-10.38,1.36Z"/>
        <path d="M383.38,246.47c8.12,3.25,10.07,6.82,10.07,12.34,0,12-11.69,18.19-51.64,18.19H317.13c-25.33,0-29.88-6.5-29.88-26V130.21l39,3.9c-.33,3.9-3.57,7.14-10.07,8.12v49.69a358.31,358.31,0,0,0,45.14-41.57l26,26.63c-2.92,2.6-6.17,2.92-12.66.33-18.19,11-39.62,20.13-58.46,26.3v39.62c0,4.23,1.3,5.85,9.09,5.85h18.83c7.8,0,14.62,0,17.54-.33s4.55-1,6.49-3.25c2.28-4.22,6.5-18.83,10.39-33.45h3.9Z"/>
        <path d="M178,177.64V165.52H149.75l-.81-3h29V151.06H144.15l-.92-3H190.7a121.4,121.4,0,0,0,6.72-17.32l13.24,4.28c-.41,1.22-1.73,1.94-3.87,1.73a115.4,115.4,0,0,1-12.94,11.3H210l5.7-7.23s6.62,5,10.69,8.56c-.31,1.12-1.32,1.63-2.85,1.63H187.85v11.51H205l5.5-6.82s6.21,4.69,10.08,8.15c-.31,1.12-1.32,1.63-2.75,1.63H187.85v12.12H212.5l5.81-7.44S225,175.4,228.9,179c-.2,1.12-1.32,1.63-2.65,1.63H140.18l-.92-3Z"/>
        <path d="M139.74,203.71c23.94,3.67,15.58,21.29,6.62,14.87-.71-5-4.28-10.8-7.54-14.26Z"/>
      </g>
    </g>
  </g>
</svg>
