<?xml version="1.0" encoding="utf-8"?>
<!-- Generator: Adobe Illustrator 21.1.0, SVG Export Plug-In . SVG Version: 6.00 Build 0)  -->
<svg version="1.1" id="Layer_1" xmlns="http://www.w3.org/2000/svg" xmlns:xlink="http://www.w3.org/1999/xlink" x="0px" y="0px"
	 viewBox="0 0 463.2 526.3" style="enable-background:new 0 0 463.2 526.3;" xml:space="preserve">
<title>Asset 14</title>
<g id="Layer_2">
	<g id="Layer_1-2">
		<g>
			<path d="M227,226.5c-9.3,31.5-8.1,71.1,24.7,113.1l-1.2,1.6c-8-2.8-14.6-1.2-20.5,6.1c-25.2-41.5-18.5-84.3-7.7-116.6
				c-10.2,14.9-22.5,28.3-39.2,38.1c30.1,34.6,2.3,55.1-5.5,35.9c3.3-9.4,3.2-22.9,1.8-33.9c-18.6,9.9-42.3,15.4-74.4,13.9l-0.6-3.3
				c57-4.9,85.1-30.9,105.8-63.3l-54.5-27.8l1-4.9L213,214c7.5-12.4,14.2-25.6,21-38.9l20.1,13.1c-1.4,1.9-3.5,2.8-7.5,1.4
				c-5.9,10.8-11.7,21.9-18.3,32.1l36.1,18.4L280,233c0,0,6.5,13.5,10.3,22.8c-1.3,1.4-3.3,1.3-5.6,0.2L227,226.5z"/>
			<path d="M322,505.6c1,1.8-4.2,11.3-16.8,18.3l-4.4,2.4l-84.2-153l34.2-4.4l112.8-62l4.7-22l35.5,6c-0.5,3.3-2.1,6.5-7.6,10.6
				l67,121.8c0.9,1.5-4.9,11.8-17.8,18.9l-4.6,2.5l-72.2-131.4l-116.9,64.3L322,505.6z"/>
			<path d="M150.2,100.6L71.4,292.9c-0.9,1.4-12.5,3-26.3-2.7l-5.1-2.1l81.7-199.2L0,39l0.9-9.8l124.4,51L139.7,45
				c-34.1-11.9-68.9-25.4-101-39.7L40.2,0c71.8,23.5,165.1,44.2,216,49.3l16.1,39.6c-4.1,1.5-10.9-0.9-17.7-8.3
				c-24.8-6.3-54.1-15.2-85.6-25.7l-15.2,37l75.7,31.1l27.3-15.1c0,0,14.5,23.8,22.5,40.1c-2,3.1-5.9,3.2-10.4,1.4L150.2,100.6z"/>
			<path d="M383.4,246.5c8.1,3.2,10.1,6.8,10.1,12.3c0,12-11.7,18.2-51.6,18.2h-24.7c-25.3,0-29.9-6.5-29.9-26V130.2l39,3.9
				c-0.3,3.9-3.6,7.1-10.1,8.1v49.7c16.2-12.5,31.3-26.4,45.1-41.6l26,26.6c-2.9,2.6-6.2,2.9-12.7,0.3c-18.2,11-39.6,20.1-58.5,26.3
				v39.6c0,4.2,1.3,5.9,9.1,5.9h18.8c7.8,0,14.6,0,17.5-0.3s4.5-1,6.5-3.2c2.3-4.2,6.5-18.8,10.4-33.4h3.9L383.4,246.5z"/>
			<path d="M178,177.6v-12.1h-28.2l-0.8-3h29v-11.5h-33.8l-0.9-3h47.5c2.7-5.6,4.9-11.4,6.7-17.3l13.2,4.3c-0.4,1.2-1.7,1.9-3.9,1.7
				c-4,4.1-8.4,7.9-12.9,11.3H210l5.7-7.2c0,0,6.6,5,10.7,8.6c-0.3,1.1-1.3,1.6-2.9,1.6h-35.7v11.5H205l5.5-6.8
				c0,0,6.2,4.7,10.1,8.1c-0.3,1.1-1.3,1.6-2.8,1.6h-30v12.1h24.6l5.8-7.4c0,0,6.7,5.2,10.6,8.8c-0.2,1.1-1.3,1.6-2.6,1.6h-86.1
				l-0.9-3L178,177.6z"/>
			<path d="M139.7,203.7c23.9,3.7,15.6,21.3,6.6,14.9c-0.7-5-4.3-10.8-7.5-14.3L139.7,203.7z"/>
			<path d="M115.6,421.3c60.8,9.3,39.6,54.1,16.8,37.8c-1.8-12.7-10.9-27.4-19.1-36.2L115.6,421.3z"/>
		</g>
	</g>
</g>
<path d="M55.4,384.9c0,40.8-2.3,93.2-41.3,128.2l-3.3-2.3c20.5-36.6,21.8-82.9,21.8-125.7v-77.9l26.5,10.3h142.5l14.5-19.5
	c0,0,16.8,13.3,27,22.8c-0.8,2.8-3.5,4-7,4H55.4V384.9z"/>
<path d="M178.8,505.9c-20.3-112.5,70.6-96.4,54.2-45.9c-19.9,10-39.6,31.8-50,49.3L178.8,505.9z"/>
</svg>
