<svg xmlns="http://www.w3.org/2000/svg" viewBox="0 0 105.81 97.75">
  <title>Asset 15</title>
  <g id="Layer_2" data-name="Layer 2">
    <g id="Layer_1-2" data-name="Layer 1">
      <g>
        <path d="M94.61,20.57S102,33,105.81,41.5c-1.3,1.83-3.49,2.07-6.08,1.12L74.56,33.36,56.24,83.13C51.68,95.53,46.13,101.47,23,95.26c1.17-5.45,1.49-9.75-.77-13.31-2.49-4.07-6.62-7.69-16.07-12.85L7,66.7s22.4,9.93,26.65,11.49c3.33,1.23,4.6.64,5.62-2.13L57.36,27,0,5.91.49,0,59.33,21.66,67.1.57,90,11.51c-1.39,2.64-3.79,3.44-8.25,2.43L76.54,28l4.63,1.7Z"/>
        <path d="M5.42,14C47.63,44.88,22.64,72.23,10.7,55c1.06-12-3.15-29.1-7.61-40.41Z"/>
      </g>
    </g>
  </g>
</svg>
