<svg xmlns="http://www.w3.org/2000/svg" viewBox="0 0 1282 1716.75">
  <title>svgFonts3</title>
  <g id="Layer_2" data-name="Layer 2">
    <g id="Layer_1-2" data-name="Layer 1">
      <g>
        <g>
          <path d="M926.68,653.25c0,69.64-3.84,158.94-70.5,218.75l-5.55-3.84c35-62.38,37.17-141.42,37.17-214.47V520.81l45.29,17.52h243.1L1201,505s28.62,22.64,46.14,38.88c-1.29,4.7-6,6.84-12,6.84H926.68Z"/>
          <path d="M959,610.42c375.66,39.53,240.56,313,95.56,214.18-13.18-72.49-64.25-154.87-110.39-204.31Z"/>
        </g>
        <path d="M139.36,1192.38,96,1154c3.45-3.77,9.74-6.52,19.86-7.75,6.8-119,17.68-180.29,40.2-200,14.67-12.67,33.52-18,57.06-17.55-.28,13.45,1.4,25,8,30.92,7.53,7.37,24.7,13.49,43.36,17.24l-.64,7.68c-18.69-2.32-49.85-5.36-59.94-5.57-7.69-.16-12,1.19-16.43,4.46-13.22,11.74-22.15,71.61-27.58,171l85.48,1.78c13.11-99.18,48-184.94,179.57-225l4.65,7.31c-98,43.61-127.49,123.71-138.11,218.62l86,1.79,4,14L289.7,1171c-2.48,27.33-3.57,56.62-4.66,85.91l-64.19-9c1.1-6.7,5.52-11.42,17.07-12.14,1.43-22.55,3.31-44.13,5.69-65.7l-79.24-1.65Z"/>
        <g>
          <path d="M907.85,1433.74l169.3-19.74c6.58-.77,10.76-3,11.51-8-20.36-14.52-53.77-34.19-53.77-34.19l-23.21,37.38-114,13.28c1.89-29.56,0-60.91-3.09-95.22L1025.26,1312c6.58-.77,10.71-3.47,11.46-8.45-20.7-13.59-53.18-32.92-53.18-32.92l-22.92,36-67.1,7.82c-2.33-23.73-5.19-48.3-7.76-74.22,10.76-3,14.2-7.88,14.74-14.62L838.88,1227c3.83,32.9,7.84,63.55,10.78,92.55l-77.19,9a418.44,418.44,0,0,0,16.89-61.09c10.08-1.18,14.45-5.69,15.59-11.15l-62.36-8.74c-1,67.68-17.34,133.6-41,178.59l6.16,3.28c24.4-23.29,44.58-52.32,59.17-87.35l84.21-9.81c3.11,34.31,5,65.65,3.08,95.22l-168,19.56,5.38,11.82L853.44,1440C846,1521,809,1585.28,701.83,1645.77l4.76,6.56c137.59-59.14,181.11-128.23,189.86-217.26l3.07-.36c21.46,66,65.89,142.13,177.79,175.33.21-24.92,13-37.52,34.44-44l.21-5.8C990,1539.75,932.09,1489.15,907.85,1433.74Z"/>
          <path d="M1082.86,1219.82c23,67.38,9.41,114.44-6.78,137.78-10.54,16.56-29,20.7-39.15,10.91-7.91-8.28-5.28-20.7,3-30.11,19.19-18.82,37.64-67,36.89-118.21Z"/>
          <path d="M1282,1401.23V1437c-13,1-29.27,1.54-49.69,1.54h-50.82c-41.41,0-54.21-7.53-54.21-38.4V1173.9l48.93,4.89c-.37,4.9-4.14,9-13.17,10.17v201c0,9.78,4.14,12.79,23,12.79H1235c20,0,35.76-.37,42.92-.75A28.86,28.86,0,0,0,1282,1401.23Z"/>
          <path d="M1228.94,1392.55c-7.15-33.88-33.5-74.54-56.09-102l4.14-2.64C1296.33,1337.59,1268.09,1421.92,1228.94,1392.55Z"/>
          <path d="M936,1094.1c28.23-20,55-60.41,71.25-92.07l4.07,2.75C1013.25,1134,924.66,1141.71,936,1094.1Z"/>
          <path d="M1282,1191.15v97.36a29.19,29.19,0,0,1-6.13-5.77c-4.14-35.38-16.18-92.6-47.81-131.75l3.77-3C1253.59,1162.16,1270,1176.84,1282,1191.15Z"/>
          <path d="M1107.17,1123.29c-2.67.79-6-.45-9.79-4.28l-139.1,96.91c-1.86.94-13.88-5-19.92-13.69l-3-4.34L1061.42,1110c-18.92-.43-36.56-2.1-53.42-5.75v-4.64c44.53-2.38,108-16.15,162.56-38l12.81,40.49c-3.57,1-7.51-.5-11.37-6a418.81,418.81,0,0,1-68.87,12.17Z"/>
          <path d="M983.21,1212.4s7.27,31.08,11.07,52.08c-3.48,2.5-7.88,1.36-12-2L854.56,1159c-38,15.22-75.65,21-111.18,18.87l-1.14-5.77c45.43-10.64,103.15-39.43,152.23-79.08l29.41,43.2c-4,3.09-9.6,2.88-16.08-2.86a367,367,0,0,1-41.69,21l81,65.62Z"/>
        </g>
        <g>
          <path d="M404.62,38.08c7.42,6.78,9.44,16.17,11.9,35.83C464.22,97,514.87,132.7,563.43,174.77l3.15-.14c44.59-202.07,178.91-152,133.86-82-37.34,13.55-82.39,48.82-114.92,81.12l336.93-15.3c6.32-.29,26.4,24.1,28,60.4l.61,13.41-314.83,14.3C675.36,289.09,709,334.21,736.48,381.2l-8.33,8.29c-83.56-99-215.95-193.4-323.75-234.38l10.53,232-22.56,8.14L381.55,157,336.9,114Z"/>
          <path d="M124.47,314.18c-18-70.76-72.31-154-124.47-217.84V47.49C385,133.23,268.59,409.74,124.47,314.18Z"/>
          <path d="M1142.1,45.06C1156.33,9.5,1169.37,0,1190.7,0c52.17,0,71.13,53.36,71.13,247.79V365.15c0,112.62-26.08,147-118.55,147H209.07l16.6-157.66c16.6,1.19,29.65,11.86,34.39,42.68h852.41c29.63,0,40.3-11.86,40.3-56.91v-102c0-43.87,0-77-2.36-93.66-1.19-13-4.74-22.53-17.79-29.63-22.53-13-103.14-33.2-186.14-52.16v-13Z"/>
        </g>
        <g>
          <path d="M676.38,879.06s13.33,51.81,20.1,87.2c-6.16,4.49-14,2.51-21.3-3.35L212.26,592.14l8-18.48,213.45,171,43.05-53.75L319.63,565.06l7.52-18,161.27,129.2,38-47.49L350.06,487.49,358,469,538.58,613.63l44.75-55.84,63.34,61c-6.9,6.47-15.25,8.35-30.91.08l-27.59,34.45,106.46,85.3L754,724.45s13,53.27,18.75,87.83c-6.16,4.49-13.47,2.93-21.3-3.35L576,668.48,538,716,632,791.21l56.19-12.4s13.55,49.41,19.16,83c-5.64,4.91-13.47,2.92-20.78-2.93L526.33,730.59l-43.05,53.75L617.33,891.77Z"/>
          <path d="M348.44,856.06c-7,5.54-17,5.22-28.61-4.92-51.73,47.06-98.27,83-189.5,67.39V874.35c71.14-2.26,112.41-39.53,158.63-91.63Z"/>
          <path d="M532.59,1031c-6.15-.2-15.76-3.66-24.85-11.8l-117.5,94c-4.08,2.4-33.52-15.15-46.46-31.34l-6.68-8.35L475,963.25l-179.14-224L158.48,849c-3.15,2.55-15.39-1.52-28.15-9.66V788.49L291.88,659.32l22,71.43,172,215.17,44.27,4Z"/>
        </g>
        <g>
          <path d="M513.22,1466.16l12.26,90.74c-8.9,1.49-19.1-1.43-32.94-10.92-122.43,122.79-190.31,172.15-236.28,170.74-29.2-2.11-56.11-16.08-81.75-39.63C189,1661.36,199,1647,197.83,1633c.5-14.58-11.62-36.45-26.53-57.66l8.61-8.21c15.87,17.81,45.2,49,56.27,59.2,9.32,8.56,15,11.67,24,11.29,25.8,1.15,87.52-48.51,188-147.4l-76.91-70.63c-99,82-215.56,144.66-371.27,103.7l1.66-13.51c122.45,9.33,227.24-54.48,318.92-136.78l-90.89-83.48L240,1267.83l97.88,89.89c26.41-24.08,50.53-49.17,74.66-74.27l65.83,73.34c-8.12,6.5-19.26,8.1-33.72-3-18.29,17.57-36.62,34-55.49,51.07l69.33,63.68Z"/>
          <path d="M727.09,1215.75l-51.33,4.43L553.41,1107.82,516.55,1031,320.17,1244.83l8.74,8c25.64,23.54,54.26,25.12,58,21.05l15-16.33,135.16,124.17-25.69,28,8.75,8c16.89,15.51,52.74,29.1,56.54,26.14L709.9,1298.79c13.26,9,26.23,11.2,33.48,10.33ZM552,1365.41,416.88,1241.27l113.44-123.53,135.17,124.14Z"/>
        </g>
      </g>
    </g>
  </g>
</svg>
