<svg xmlns="http://www.w3.org/2000/svg" viewBox="0 0 1281.38 1999.56">
  <title>svgFonts5</title>
  <g id="Layer_2" data-name="Layer 2">
    <g id="Layer_1-2" data-name="Layer 1">
      <g>
        <path d="M671.45,729.51c-138.12,149.65-223.32-6.4-141.67-4.5,33.58,19,83.17,24.6,136.1-4.81Z"/>
        <path d="M677.51,525.56l82.68,8.07c-1.35,9.41-8.07,14.79-23.53,16.8V776.28c0,45-9.41,70.57-83.34,77.3-2-18.82-4.7-32.94-14.79-42.35-9.41-10.08-25.53-16.8-56.45-21.51V779.64s67.89,4.7,81.32,4.7c10.76,0,14.11-3.36,14.11-12.1Z"/>
        <path d="M827.8,693.06c30.53,150.57-89.69,183.32-87.47,114.43,35-28.56,64.65-79.06,78.92-118.34Z"/>
        <path d="M954.78,727.18c-40,190-181.09,164.51-144.3,98.61,50.14-13.66,105.66-62.41,138.26-105.73Z"/>
        <path d="M1042.22,1748.72l12.26,90.74c-8.9,1.49-19.1-1.43-32.94-10.92-122.43,122.79-190.31,172.15-236.28,170.74-29.2-2.11-56.11-16.08-81.75-39.63,14.49-15.73,24.49-30.14,23.32-44.09.5-14.58-11.62-36.45-26.53-57.66l8.61-8.21c15.87,17.81,45.2,49,56.27,59.2,9.32,8.56,15.05,11.67,24,11.29,25.8,1.15,87.52-48.51,188-147.4l-76.91-70.63c-99,82-215.56,144.66-371.27,103.7l1.66-13.51c122.45,9.33,227.24-54.48,318.92-136.78l-90.89-83.48L769,1550.39l97.88,89.89c26.41-24.08,50.53-49.17,74.66-74.27l65.83,73.34c-8.12,6.5-19.26,8.1-33.72-3-18.29,17.57-36.62,34-55.49,51.07l69.33,63.68Z"/>
        <path d="M1265.09,1498.31l-51.33,4.43-122.35-112.36-36.86-76.82L858.17,1527.39l8.74,8c25.64,23.54,54.26,25.12,58,21l15-16.33,135.16,124.17-25.69,28,8.75,8c16.89,15.51,52.74,29.1,56.54,26.14l133.23-145.07c13.26,9,26.23,11.2,33.48,10.33ZM1090,1648,954.88,1523.83l113.44-123.53,135.17,124.14Z"/>
        <path d="M1086.28,818c3.11,7.13-21.24,35.68-47.4,47.08l-13.5,5.87L808.68,373.88l104.38-33.24c2.46,12.13-.42,22.83-19.66,35Z"/>
        <g>
          <path d="M404.62,859.64c7.42,6.78,9.44,16.17,11.9,35.83,47.7,23.09,98.35,58.79,146.91,100.86l3.15-.14c44.59-202.07,178.91-152,133.86-82C663.1,927.74,618.05,963,585.52,995.31L922.45,980c6.32-.29,26.4,24.1,28,60.4l.61,13.41-314.83,14.3c39.13,42.53,72.77,87.65,100.25,134.64l-8.33,8.29c-83.56-99-215.95-193.4-323.75-234.38l10.53,232-22.56,8.14-10.82-238.3-44.65-43Z"/>
          <path d="M124.47,1135.74C106.47,1065,52.16,981.74,0,917.9V869.05C385,954.79,268.59,1231.3,124.47,1135.74Z"/>
          <path d="M1142.1,866.62c14.23-35.56,27.27-45.06,48.6-45.06,52.17,0,71.13,53.36,71.13,247.79v117.36c0,112.62-26.08,147-118.55,147H209.07l16.6-157.66c16.6,1.19,29.65,11.86,34.39,42.68h852.41c29.63,0,40.3-11.86,40.3-56.91v-102c0-43.87,0-77-2.36-93.66-1.19-13-4.74-22.53-17.79-29.63-22.53-13-103.14-33.2-186.14-52.16v-13Z"/>
        </g>
        <g>
          <path d="M.33,1810.29V1746c24.81-43.19,47-92,56.85-124.47l88.52,35.69c-2.87,6.42-11.42,12.85-25.7,11.43C92.22,1712.41,45.85,1766.91.33,1810.29Z"/>
          <path d="M195.66,1797.16c-3.56,6.43-12.85,12.14-27.84,9.28C132,1862.56,64.51,1941.24.33,1999.56v-47.3a892.28,892.28,0,0,0,62.56-92.33c-18.56,8.35-39.79,17.63-62.56,26.81v-52.46c24.87-1.35,53.36-3.17,81.84-5.71a665,665,0,0,0,35.68-72.1Z"/>
          <path d="M578.41,239l-26,7.16V373.28h-93.1V341.06l26.9-64.5h-.9L541.71,213l-41.18-38.46V128.91C565,139.65,625,148.61,668.82,154c2.68,26,11.64,31.34,22.38,34L710,82.37c-48.34-2.71-128-11.64-209.47-23.28V0l-26,8.06v47.5C380.59,42.09,284.8,25.06,228.4,11.64a867.38,867.38,0,0,1-111,111C76.54,109.88,37.08,94.06,0,74.73v45.51a618.24,618.24,0,0,0,68.17,39.09A303.42,303.42,0,0,1,18,188.89c-35.81,51.9,33.12,111.89,127.12,2.68,103,36.7,213.05,51,317.78,60,1.8,11.64,3.58,19.7,6.28,25.06H194.37v9c0,25.05,13.45,51,18.8,51h20.61v21.43C149.91,337.29,68.92,303.88,0,256v40.61a595.24,595.24,0,0,0,106.65,78.47H0v70.7H164c-36.71,28.67-86.83,56.4-127.13,62.69-49.22,60.86,77.88,119,147.7-62.69h49.25V480.7H208.69v9.86c0,19.71,13.45,49.25,19.71,50.15H428c1.78,12.52,8.06,24.16,13.42,27.74l49.24-63.57-31.34-30.41V445.78h93.1V564.85c0,12.54,4.48,21.48,14.32,23.28,27.74-26,66.25-70.72,66.25-70.72L578.38,479.8v-34h96.67c3.6,20.6,11.64,27.76,23.28,29.57l9.84-102.07H578.41ZM181,141.45a643.27,643.27,0,0,0,37.6-67.14c72.5,17.9,167.38,35.8,256,50.12v58.18C377.88,177.25,276.74,165.61,181,141.45ZM433.41,480.7H259.74v-42H433.41Zm0-99.36H259.74V336.56H433.41Z"/>
          <path d="M421.94,1720.13c51.66,49,135.11,81.67,207.58,92L629,1819c-22.66,8.31-36.86,29.78-40.27,61.39-75.44-28.31-139.19-81.85-183.49-158.15l-66.67,8.52c-33.36,89-97.94,161.58-204.5,218.56l-5.69-7.41c76.54-58.56,122.7-126.8,146.17-203l-106.66,13.63-7.81-18.66,120.68-15.34a493.48,493.48,0,0,0,13.86-114.3l-124,15.84-7.8-18.65,278-35.52,30-51.94s45.59,28,73.16,47.57c-1.06,7.58-7.3,11.77-16.64,13l-160,20.42c-3.55,41.11-10.2,79.23-21.19,115.19l151.34-19.33,31-54.11s46.34,28.64,74.75,49.4c-1.06,7.59-7.3,11.78-16.64,13Z"/>
        </g>
      </g>
    </g>
  </g>
</svg>
