<svg xmlns="http://www.w3.org/2000/svg" viewBox="0 0 1280 707.12">
  <title>Asset 24</title>
  <g id="Layer_2" data-name="Layer 2">
    <g id="Layer_1-2" data-name="Layer 1">
      <path d="M546.05,410.06s13.33,51.81,20.1,87.2c-6.16,4.49-14,2.51-21.3-3.35L81.93,123.14l8-18.48,213.45,171,43.05-53.75L189.3,96.06l7.52-18L358.09,207.26l38-47.49L219.73,18.49,227.68,0,408.25,144.63,453,88.79l63.34,61c-6.9,6.47-15.25,8.35-30.91.08l-27.59,34.45L564.3,269.62l59.32-14.17s13,53.27,18.75,87.83c-6.16,4.49-13.47,2.93-21.3-3.35L445.71,199.48l-38,47.49,93.94,75.24,56.19-12.4s13.55,49.41,19.16,83c-5.64,4.91-13.47,2.92-20.78-2.93L396,261.59l-43.05,53.75L487,422.77Z"/>
      <path d="M218.11,387.06c-7,5.54-17,5.22-28.61-4.92-51.73,47.06-98.27,83-189.5,67.39V405.35c71.14-2.26,112.41-39.53,158.63-91.63Z"/>
      <path d="M402.26,562c-6.15-.2-15.76-3.66-24.85-11.8l-117.5,93.95c-4.08,2.4-33.52-15.15-46.46-31.34l-6.68-8.35L344.64,494.25l-179.14-224L28.15,380C25,382.55,12.76,378.48,0,370.34V319.49L161.55,190.32l22,71.43,172,215.17,44.27,4Z"/>
      <path d="M187.85,418.59C204.76,808.53,61.31,714.1,101.07,641.93,128.78,598.17,159.85,521,177.66,417.8Z"/>
      <path d="M905.85,477.74,1075.15,458c6.58-.77,10.76-3,11.51-8-20.36-14.52-53.77-34.19-53.77-34.19l-23.21,37.38-114,13.28c1.89-29.56,0-60.91-3.09-95.22L1023.26,356c6.58-.77,10.71-3.47,11.46-8.45-20.7-13.59-53.18-32.92-53.18-32.92l-22.92,36-67.1,7.82c-2.33-23.73-5.19-48.3-7.76-74.22,10.76-3,14.2-7.88,14.74-14.62L836.88,271c3.83,32.9,7.84,63.55,10.78,92.55l-77.19,9a418.81,418.81,0,0,0,16.89-61.09c10.08-1.18,14.45-5.69,15.59-11.15l-62.36-8.74c-1,67.68-17.34,133.6-41,178.59l6.16,3.28c24.4-23.29,44.58-52.32,59.17-87.35l84.21-9.81c3.11,34.31,5,65.65,3.08,95.22l-168,19.56,5.38,11.82,161.85-18.85C844,565,807,629.28,699.83,689.77l4.76,6.56C842.18,637.19,885.7,568.1,894.45,479.07l3.07-.36c21.46,66,65.89,142.13,177.79,175.33.21-24.92,13-37.52,34.44-44l.21-5.8C988,583.75,930.09,533.15,905.85,477.74Z"/>
      <path d="M1080.86,263.82c23,67.38,9.41,114.44-6.78,137.78-10.54,16.56-29,20.7-39.15,10.91-7.91-8.28-5.28-20.7,3-30.11,19.19-18.82,37.64-67,36.89-118.21Z"/>
      <path d="M1280,445.23V481c-13,1-29.27,1.54-49.69,1.54h-50.82c-41.41,0-54.21-7.53-54.21-38.4V217.9l48.93,4.89c-.37,4.9-4.14,9-13.17,10.17V434c0,9.78,4.14,12.79,23,12.79h48.94c20,0,35.76-.37,42.92-.75A28.61,28.61,0,0,0,1280,445.23Z"/>
      <path d="M1226.94,436.55c-7.15-33.88-33.5-74.54-56.09-102l4.14-2.64C1294.33,381.59,1266.09,465.92,1226.94,436.55Z"/>
      <path d="M934,138.1c28.23-20.05,55-60.41,71.25-92.07l4.07,2.75C1011.25,178,922.66,185.71,934,138.1Z"/>
      <path d="M1280,235.15v97.36a29.12,29.12,0,0,1-6.13-5.77c-4.14-35.38-16.18-92.6-47.81-131.75l3.77-3C1251.59,206.16,1268,220.84,1280,235.15Z"/>
      <path d="M1105.17,167.29c-2.67.79-6-.45-9.79-4.28l-139.1,96.91c-1.86.94-13.88-5-19.92-13.69l-3-4.34L1059.42,154c-18.92-.43-36.56-2.1-53.42-5.75v-4.64c44.53-2.38,108-16.15,162.56-38.05l12.81,40.49c-3.57,1.05-7.51-.5-11.37-6a419,419,0,0,1-68.87,12.17Z"/>
      <path d="M569.36,267.38,526,229c3.45-3.77,9.74-6.52,19.86-7.75,6.8-119,17.68-180.29,40.2-200,14.67-12.67,33.52-18,57.06-17.55-.28,13.45,1.4,25,8,30.92,7.53,7.37,24.7,13.49,43.36,17.24l-.64,7.68c-18.69-2.32-49.85-5.36-59.94-5.57-7.69-.16-12,1.19-16.43,4.46-13.22,11.74-22.15,71.61-27.58,171l85.48,1.78c13.11-99.18,48-184.94,179.57-225l4.65,7.31c-98,43.61-127.49,123.71-138.11,218.62l86,1.79,4,14L719.7,246c-2.48,27.33-3.57,56.62-4.66,85.91l-64.19-9c1.1-6.7,5.52-11.42,17.07-12.14,1.43-22.55,3.31-44.13,5.69-65.7l-79.24-1.65Z"/>
      <path d="M981.21,256.4s7.27,31.08,11.07,52.08c-3.48,2.5-7.88,1.36-12-2L852.56,203c-38,15.22-75.65,21-111.18,18.87l-1.14-5.77c45.43-10.64,103.15-39.43,152.23-79.08l29.41,43.2c-4,3.09-9.6,2.88-16.08-2.86a365.71,365.71,0,0,1-41.69,21l81,65.62Z"/>
    </g>
  </g>
</svg>
