<svg xmlns="http://www.w3.org/2000/svg" viewBox="0 0 1280 1941.75">
  <title>svgFonts2</title>
  <g id="Layer_2" data-name="Layer 2">
    <g id="Layer_1-2" data-name="Layer 1">
      <path d="M546.05,410.06s13.33,51.81,20.1,87.2c-6.16,4.49-14,2.51-21.3-3.35L81.93,123.14l8-18.48,213.45,171,43.05-53.75L189.3,96.06l7.52-18,161.27,129.2,38-47.49L219.73,18.49l8-18.49L408.25,144.63,453,88.79l63.34,61c-6.9,6.47-15.25,8.35-30.91.08l-27.59,34.45,106.46,85.3,59.32-14.17s13,53.27,18.75,87.83c-6.16,4.49-13.47,2.93-21.3-3.35L445.71,199.48l-38,47.49,93.94,75.24,56.19-12.4s13.55,49.41,19.16,83c-5.64,4.91-13.47,2.92-20.78-2.93L396,261.59,353,315.34,487,422.77Z"/>
      <path d="M218.11,387.06c-7,5.54-17,5.22-28.61-4.92-51.73,47.06-98.27,83-189.5,67.39V405.35c71.14-2.26,112.41-39.53,158.63-91.63Z"/>
      <path d="M402.26,562c-6.15-.2-15.76-3.66-24.85-11.8l-117.5,93.95c-4.08,2.4-33.52-15.15-46.46-31.34l-6.68-8.35L344.64,494.25l-179.14-224L28.15,380C25,382.55,12.76,378.48,0,370.34V319.49L161.55,190.32l22,71.43,172,215.17,44.27,4Z"/>
      <path d="M187.85,418.59C204.76,808.53,61.31,714.1,101.07,641.93,128.78,598.17,159.85,521,177.66,417.8Z"/>
      <path d="M905.85,477.74,1075.15,458c6.58-.77,10.76-3,11.51-8-20.36-14.52-53.77-34.19-53.77-34.19l-23.21,37.38-114,13.28c1.89-29.56,0-60.91-3.09-95.22L1023.26,356c6.58-.77,10.71-3.47,11.46-8.45-20.7-13.59-53.18-32.92-53.18-32.92l-22.92,36-67.1,7.82c-2.33-23.73-5.19-48.3-7.76-74.22,10.76-3,14.2-7.88,14.74-14.62L836.88,271c3.83,32.9,7.84,63.55,10.78,92.55l-77.19,9a418.44,418.44,0,0,0,16.89-61.09c10.08-1.18,14.45-5.69,15.59-11.15l-62.36-8.74c-1,67.68-17.34,133.6-41,178.59l6.16,3.28c24.4-23.29,44.58-52.32,59.17-87.35l84.21-9.81c3.11,34.31,5,65.65,3.08,95.22l-168,19.56,5.38,11.82L851.44,484C844,565,807,629.28,699.83,689.77l4.76,6.56C842.18,637.19,885.7,568.1,894.45,479.07l3.07-.36c21.46,66,65.89,142.13,177.79,175.33.21-24.92,13-37.52,34.44-44l.21-5.8C988,583.75,930.09,533.15,905.85,477.74Z"/>
      <path d="M1080.86,263.82c23,67.38,9.41,114.44-6.78,137.78-10.54,16.56-29,20.7-39.15,10.91-7.91-8.28-5.28-20.7,3-30.11,19.19-18.82,37.64-67,36.89-118.21Z"/>
      <path d="M1280,445.23V481c-13,1-29.27,1.54-49.69,1.54h-50.82c-41.41,0-54.21-7.53-54.21-38.4V217.9l48.93,4.89c-.37,4.9-4.14,9-13.17,10.17V434c0,9.78,4.14,12.79,23,12.79H1233c20,0,35.76-.37,42.92-.75A28.86,28.86,0,0,0,1280,445.23Z"/>
      <path d="M1226.94,436.55c-7.15-33.88-33.5-74.54-56.09-102l4.14-2.64C1294.33,381.59,1266.09,465.92,1226.94,436.55Z"/>
      <path d="M934,138.1c28.23-20,55-60.41,71.25-92.07l4.07,2.75C1011.25,178,922.66,185.71,934,138.1Z"/>
      <path d="M1280,235.15v97.36a29.19,29.19,0,0,1-6.13-5.77c-4.14-35.38-16.18-92.6-47.81-131.75l3.77-3C1251.59,206.16,1268,220.84,1280,235.15Z"/>
      <path d="M1105.17,167.29c-2.67.79-6-.45-9.79-4.28l-139.1,96.91c-1.86.94-13.88-5-19.92-13.69l-3-4.34L1059.42,154c-18.92-.43-36.56-2.1-53.42-5.75v-4.64c44.53-2.38,108-16.15,162.56-38.05l12.81,40.49c-3.57,1-7.51-.5-11.37-6a418.81,418.81,0,0,1-68.87,12.17Z"/>
      <path d="M569.36,267.38,526,229c3.45-3.77,9.74-6.52,19.86-7.75,6.8-119,17.68-180.29,40.2-200,14.67-12.67,33.52-18,57.06-17.55-.28,13.45,1.4,25,8,30.92,7.53,7.37,24.7,13.49,43.36,17.24l-.64,7.68C675.15,57.22,644,54.18,633.9,54c-7.69-.16-12,1.19-16.43,4.46-13.22,11.74-22.15,71.61-27.58,171l85.48,1.78c13.11-99.18,48-184.94,179.57-225l4.65,7.31c-98,43.61-127.49,123.71-138.11,218.62l86,1.79,4,14L719.7,246c-2.48,27.33-3.57,56.62-4.66,85.91l-64.19-9c1.1-6.7,5.52-11.42,17.07-12.14,1.43-22.55,3.31-44.13,5.69-65.7l-79.24-1.65Z"/>
      <path d="M981.21,256.4s7.27,31.08,11.07,52.08c-3.48,2.5-7.88,1.36-12-2L852.56,203c-38,15.22-75.65,21-111.18,18.87l-1.14-5.77c45.43-10.64,103.15-39.43,152.23-79.08l29.41,43.2c-4,3.09-9.6,2.88-16.08-2.86a367,367,0,0,1-41.69,21l81,65.62Z"/>
      <path d="M520.29,1691.16l12.26,90.74c-8.9,1.49-19.1-1.43-32.94-10.92-122.43,122.79-190.31,172.15-236.28,170.74-29.2-2.11-56.11-16.08-81.75-39.63,14.49-15.73,24.49-30.14,23.32-44.09.5-14.58-11.62-36.45-26.53-57.66l8.61-8.21c15.87,17.81,45.2,49,56.27,59.2,9.32,8.56,15.05,11.67,24,11.29,25.8,1.15,87.52-48.51,188-147.4l-76.91-70.63c-99,82-215.56,144.66-371.27,103.7l1.66-13.51C131.18,1744.11,236,1680.3,327.65,1598l-90.89-83.48,10.31-21.69L345,1582.72c26.41-24.08,50.53-49.17,74.66-74.27l65.83,73.34c-8.12,6.5-19.26,8.1-33.72-3-18.29,17.57-36.62,34-55.49,51.07l69.33,63.68Z"/>
      <path d="M734.16,1440.75l-51.33,4.43L560.48,1332.82,523.62,1256,327.24,1469.83l8.74,8c25.64,23.54,54.26,25.12,58,21.05l15-16.33,135.16,124.17-25.69,28,8.75,8c16.89,15.51,52.74,29.1,56.54,26.14L717,1523.79c13.26,9,26.23,11.2,33.48,10.33ZM559.07,1590.41,424,1466.27l113.44-123.53,135.17,124.14Z"/>
      <path d="M760.48,1575.9c-7.13,3.11-35.68-21.24-47.08-47.4l-5.87-13.5,497.07-216.7,33.24,104.38c-12.13,2.46-22.83-.42-35-19.66Z"/>
      <path d="M1280,1495.66v89.64l-511.66,223c-55.48,24.24-93.52,25.7-144.17-64.47,23.2-13.83,39.7-25.83,46.06-43.67,7.17-18.21,6.1-42.27-3.7-84.24l11.1-4.84s31.67,90,39.28,107.42c6.57,15.07,13,17,24.94,11.77Z"/>
      <path d="M462.13,945.18l-37.86,47.38-232.93-.38c11-15.76,22-30.88,30.34-42.56,21.9.77,28.88-5.44,31.58-13L162,912.43c-10.34,19.2-28.95,48-51,79.57L.41,991.82l0,20,96.8.16C71,1049,42.84,1084.64,22.1,1107.3c61.81,12.4,119.53,27,171.06,42.24C143.71,1182,79.78,1205.7,0,1224l0,21c113.62-13.93,194.88-37.69,255.66-75.48,70.06,23.51,127,49.69,168.2,74.54,61,27.58,133.4-53.44-120.82-111.5,33.76-32.26,57.87-72,78.55-120.1l132,.21c9.57,0,17.18-3.4,18.59-11C505.34,976.91,462.13,945.18,462.13,945.18ZM233,1118.7c-37-6.29-79.63-12.58-127.07-17.39,22-25.4,46.89-58.31,70.24-89.2l127.83.21C287.42,1054.16,264.7,1089.87,233,1118.7Z"/>
      <path d="M364.67,727.85l-40.53,32.72L.11,687.68v16.54l79.75,18L67.35,777.73,8,764.38l-7.9-5.51v22.7l.5-2.22,63.15,14.2L44.19,880.69l-44-9.9v16.55l266.48,59.95-5.89,26.2,8.17,1.84c16.34,3.67,43.52,0,44.9-3.66l24-106.8c11.5-.27,21.24-2.64,25.45-6.25l-44.17-52.86-31.23,21.59-58.77-13.23,12.5-55.57L394.72,793c7.58,1.71,13.64.21,16.67-5.37C394.54,763.18,364.67,727.85,364.67,727.85ZM157,906,93.19,891.72l19.61-87.14,63.73,14.34Zm23.2-102.95-63.78-14.33,12.51-55.57,63.73,14.33ZM289.86,844.4l-19.65,87.14L206,917.08,225.56,830Z"/>
      <path d="M1277.46,985.54v54.87c-28.68-32.48-52.71-73.27-68.38-114.94-40.62,77.6-96.78,134.24-159.62,169.92l-4.9-5.35c50.39-45,103.46-121.31,132.9-205.6l55.31,22.75c-2.24,4.9-7.59,8.47-17.4,7.13C1229.46,941.18,1252.06,965.42,1277.46,985.54Z"/>
      <path d="M1270.18,1052.44l-20.07,22.3H1142.64l-43.26-17.84v189.54h6.23c17,0,34.35-8.92,34.35-12.93v-19.63h114.62v30.78h6.69a63.51,63.51,0,0,0,16.19-2.66V1058ZM1254.58,1201H1140V1087.67h114.62Z"/>
      <path d="M1238.52,1012.71s26.32,21.85,41.48,37c-1.34,4.91-5.35,7.14-11.59,7.14H1120.78l-3.12-12.94h97.67Z"/>
    </g>
  </g>
</svg>
