<svg xmlns="http://www.w3.org/2000/svg" viewBox="0 0 1279.25 1923.75">
  <title>svgFonts1</title>
  <g id="Layer_2" data-name="Layer 2">
    <g id="Layer_1-2" data-name="Layer 1">
      <path d="M462.25,988.26l-37.88,47.36-232.93-.47c11-15.76,22.07-30.87,30.36-42.55,21.9.78,28.88-5.42,31.59-13l-91.31-24.18c-10.34,19.2-29,48-51,79.55L.51,1034.71l0,20,96.8.2c-26.16,37-54.36,72.64-75.11,95.3,61.8,12.42,119.51,27.07,171,42.3C143.74,1225,79.8,1248.62,0,1266.84l0,21c113.63-13.88,194.9-37.6,255.69-75.37,70.06,23.53,127,49.74,168.17,74.6,61,27.6,133.42-53.38-120.77-111.55,33.76-32.24,57.89-72,78.59-120.07l132,.27c9.57,0,17.19-3.39,18.59-11C505.44,1020,462.25,988.26,462.25,988.26ZM233.06,1161.68c-37-6.3-79.63-12.61-127.06-17.43,22.05-25.4,46.91-58.3,70.27-89.17l127.83.26C287.5,1097.17,264.76,1132.87,233.06,1161.68Z"/>
      <path d="M364.88,770.89l-40.55,32.7-324-73v16.54l79.74,18L67.54,820.65,8.23,807.28l-7.9-5.52v22.7l.5-2.22L64,836.47,44.33,923.6l-44-9.92v16.55l266.46,60.06-5.9,26.2,8.17,1.84c16.33,3.68,43.52.07,44.9-3.64L338,907.9c11.5-.27,21.24-2.63,25.45-6.24l-44.15-52.88L288.1,870.36l-58.77-13.25,12.52-55.57L394.9,836c7.58,1.71,13.64.22,16.67-5.36C394.73,806.23,364.88,770.89,364.88,770.89ZM157.08,949,93.33,934.65,113,847.52l63.73,14.36Zm23.25-102.94L116.55,831.7l12.53-55.57,63.73,14.36ZM290,887.41l-19.69,87.13-64.24-14.48,19.63-87.13Z"/>
      <path d="M1117.39,654.1l-1.06-5.1h47.61V631l21.87,1.94c-.18,2.47-1.59,4.23-6.17,4.76V649h35.09V631l22.39,1.94c-.18,2.47-1.76,4.23-6.35,4.76V649h22.56l9.34-11.64s10.4,8.11,16.58,13.93c-.35,1.94-2.12,2.82-4.59,2.82h-43.91v9.52c0,1.06-5.82,3.35-13.4,3.53h-2.64v-13h-35.08v10.17c0,1.41-6.35,3.53-13.22,3.53h-2.47V654.1Z"/>
      <path d="M1230.33,60.18c-6.36,6.38-14.26,8.43-29,.54-132.64,200.67-178.83,360.22-57.2,563.4l-5.21,4.85c-28.42-14.11-56.71-11.4-83.17,10.16-79.19-170.62-31.2-320.87,74.09-490.3C1025.19,269.47,890.41,373.06,633.27,325.46l-.39-12.23C925.51,326.15,1045.2,158.74,1164.77,0Z"/>
      <path d="M62.73,353C113.33,502.68-9.09,509.8.92,440.41c25.65-19.39,46.63-59,54.92-90.77Z"/>
      <path d="M167.22,233.71c-17.14,82-47.27,232.74-52.7,267.69-2.69,21.19-4.66,43-3,60.38,4.53,33.33,30,59.24,33.41,116.31,1.67,31.57-13.8,53.31-41.91,56-14,1.34-27.79-8.15-33.37-31.24,4.78-70-4.94-129.16-20.62-137.79-10-5.79-19.56-6.9-33.74-6.89L14,544.79,42.79,542c8.71-.83,11.38-1.09,17.45-15.18,10.34-26,10.34-26,95.36-294.73Z"/>
      <path d="M19.33,194C186,212.16,143.67,329.1,82.51,293.48,71.75,259.87,40.17,222.23,14,198.71Z"/>
      <path d="M421.94,325.57c51.66,49,135.11,81.67,207.58,92.05l-.48,6.84c-22.66,8.31-36.86,29.78-40.27,61.39C513.33,457.54,449.58,404,405.28,327.7l-66.67,8.52c-33.36,89-97.94,161.58-204.5,218.56l-5.69-7.41c76.54-58.56,122.7-126.8,146.17-203L167.93,358l-7.81-18.66L280.8,324a493.48,493.48,0,0,0,13.86-114.3l-124,15.84-7.8-18.65,278-35.52,30-51.94s45.59,28,73.16,47.57c-1.06,7.58-7.3,11.77-16.64,13l-160,20.42c-3.55,41.11-10.2,79.23-21.19,115.19l151.34-19.33,31-54.11s46.34,28.64,74.75,49.4c-1.06,7.59-7.3,11.78-16.64,13Z"/>
      <path d="M310.45,588c-138.12,149.65-223.32-6.4-141.67-4.5,33.58,19,83.17,24.6,136.1-4.81Z"/>
      <path d="M313.51,405l82.68,8.07c-1.35,9.41-8.07,14.79-23.53,16.8V655.72c0,45-9.41,70.57-83.34,77.3-2-18.82-4.7-32.94-14.79-42.35-9.41-10.08-25.53-16.8-56.45-21.51V659.08s67.89,4.7,81.32,4.7c10.76,0,14.11-3.36,14.11-12.1Z"/>
      <path d="M466.8,551.5c30.53,150.57-89.69,183.32-87.47,114.43,35-28.56,64.65-79.06,78.92-118.34Z"/>
      <path d="M593.78,585.62c-40,190-181.09,164.51-144.3,98.61,50.14-13.66,105.66-62.41,138.26-105.73Z"/>
      <path d="M693.68,604.25c0,69.64-3.84,158.94-70.5,218.75l-5.55-3.84c35-62.38,37.17-141.42,37.17-214.47V471.81l45.29,17.52h243.1L968,456s28.62,22.64,46.14,38.88c-1.29,4.7-6,6.84-12,6.84H693.68Z"/>
      <path d="M887.93,358.59c9,30.45,26.17,57.3,43.77,71.29l-.45,2.26c-7.67,1.35-13.54,7.22-16.69,16.92-12.41-17.37-21.88-42.41-28-73.54v92c0,2.26-8.57,6.54-16,6.54h-3.83V401.23a159.8,159.8,0,0,1-45.57,49.18l-2.48-2.93c22.56-23.24,36.55-55.5,44.44-88.88h-21v-.23a11.29,11.29,0,0,1-2.71.45H811.9v15.79c47.37,13.76,30,45.8,13.76,32.71-1.58-9-7.89-19.85-13.76-27.75V468c0,2.26-8.57,6.77-16,6.77h-3.83V401.91a161.89,161.89,0,0,1-40.38,48.28l-2.48-2.71c19.12-23.69,31.12-56.18,38.12-88.66H763.62l-1.8-6.54h30.23V311.67l28.2,2.94c-.45,3.38-2.26,5.41-8.35,6.31v31.36h5l10.15-14.44s8.8,7.45,15.11,14.21h24.59V312.12l28.2,2.93c-.45,3.16-2.25,5.41-8.35,6.32v30.68h11.51l11.06-15.11s13.08,10.38,20.75,18c-.68,2.48-2.93,3.61-6.09,3.61Z"/>
      <path d="M726,561.42c375.66,39.53,240.56,313,95.56,214.18-13.18-72.49-64.25-154.87-110.39-204.31Z"/>
      <path d="M513.22,1673.16l12.26,90.74c-8.9,1.49-19.1-1.43-32.94-10.92-122.43,122.79-190.31,172.15-236.28,170.74-29.2-2.11-56.11-16.08-81.75-39.63C189,1868.36,199,1854,197.83,1840c.5-14.58-11.62-36.45-26.53-57.66l8.61-8.21c15.87,17.81,45.2,49,56.27,59.2,9.32,8.56,15,11.67,24,11.29,25.8,1.15,87.52-48.51,188-147.4l-76.91-70.63c-99,82-215.56,144.66-371.27,103.7l1.66-13.51c122.45,9.33,227.24-54.48,318.92-136.78l-90.89-83.48L240,1474.83l97.88,89.89c26.41-24.08,50.53-49.17,74.66-74.27l65.83,73.34c-8.12,6.5-19.26,8.1-33.72-3-18.29,17.57-36.62,34-55.49,51.07l69.33,63.68Z"/>
      <path d="M727.09,1422.75l-51.33,4.43L553.41,1314.82,516.55,1238,320.17,1451.83l8.74,8c25.64,23.54,54.26,25.12,58,21.05l15-16.33,135.16,124.17-25.69,28,8.75,8c16.89,15.51,52.74,29.1,56.54,26.14L709.9,1505.79c13.26,9,26.23,11.2,33.48,10.33ZM552,1572.41,416.88,1448.27l113.44-123.53,135.17,124.14Z"/>
      <path d="M753.41,1557.9c-7.13,3.11-35.68-21.24-47.08-47.4l-5.87-13.5,497.07-216.7,33.24,104.38c-12.13,2.46-22.83-.42-35-19.66Z"/>
      <path d="M1272.93,1477.66v89.64l-511.66,223c-55.48,24.24-93.52,25.7-144.17-64.47,23.2-13.83,39.7-25.83,46.06-43.67,7.17-18.21,6.1-42.27-3.7-84.24l11.1-4.84s31.67,90,39.28,107.42c6.57,15.07,13,17,24.94,11.77Z"/>
    </g>
  </g>
</svg>
