<svg xmlns="http://www.w3.org/2000/svg" viewBox="0 0 1272.93 685.75">
  <title>Asset 21</title>
  <g id="Layer_2" data-name="Layer 2">
    <g id="Layer_1-2" data-name="Layer 1">
      <path d="M513.22,435.16l12.26,90.74c-8.9,1.49-19.1-1.43-32.94-10.92C370.11,637.77,302.23,687.13,256.26,685.72c-29.2-2.11-56.11-16.08-81.75-39.63C189,630.36,199,615.95,197.83,602c.5-14.58-11.62-36.45-26.53-57.66l8.61-8.21c15.87,17.81,45.2,49,56.27,59.2,9.32,8.56,15.05,11.67,24,11.29,25.8,1.15,87.52-48.51,188-147.4l-76.91-70.63c-99,82-215.56,144.66-371.27,103.7l1.66-13.51C124.11,488.11,228.9,424.3,320.58,342l-90.89-83.48L240,236.83l97.88,89.89c26.41-24.08,50.53-49.17,74.66-74.27l65.83,73.34c-8.12,6.5-19.26,8.1-33.72-3.05-18.29,17.57-36.62,34-55.49,51.07l69.33,63.68Z"/>
      <path d="M727.09,184.75l-51.33,4.43L553.41,76.82,516.55,0,320.17,213.83l8.74,8c25.64,23.54,54.26,25.12,58,21.05l15-16.33L537.07,350.72l-25.69,28,8.75,8c16.89,15.51,52.74,29.1,56.54,26.14L709.9,267.79c13.26,9,26.23,11.2,33.48,10.33ZM552,334.41,416.88,210.27,530.32,86.74,665.49,210.88Z"/>
      <path d="M753.41,319.9c-7.13,3.11-35.68-21.24-47.08-47.4L700.46,259l497.07-216.7,33.24,104.38c-12.13,2.46-22.83-.42-35-19.66Z"/>
      <path d="M1272.93,239.66V329.3l-511.66,223C705.79,576.54,667.75,578,617.1,487.83,640.3,474,656.8,462,663.16,444.16c7.17-18.21,6.1-42.27-3.7-84.24l11.1-4.84s31.67,90,39.28,107.42c6.57,15.07,13,16.95,24.94,11.77Z"/>
    </g>
  </g>
</svg>
