<svg xmlns="http://www.w3.org/2000/svg" viewBox="0 0 1261.84 512.15">
  <title>Asset 22</title>
  <g id="Layer_2" data-name="Layer 2">
    <g id="Layer_1-2" data-name="Layer 1">
      <path d="M404.62,38.08c7.42,6.78,9.44,16.17,11.9,35.83C464.22,97,514.87,132.7,563.43,174.77l3.15-.14c44.59-202.07,178.91-152,133.86-82-37.34,13.55-82.39,48.82-114.92,81.12l336.93-15.3c6.32-.29,26.4,24.1,28,60.4l.61,13.41-314.83,14.3C675.36,289.09,709,334.21,736.48,381.2l-8.33,8.29c-83.56-99-215.95-193.4-323.75-234.38l10.53,232-22.56,8.14-10.82-238.3-44.65-43Z"/>
      <path d="M124.47,314.18c-18-70.76-72.31-154-124.47-217.84V47.49C385,133.23,268.59,409.74,124.47,314.18Z"/>
      <path d="M1142.1,45.06C1156.33,9.5,1169.37,0,1190.7,0c52.17,0,71.13,53.36,71.13,247.79V365.15c0,112.62-26.08,147-118.55,147H209.07l16.6-157.66c16.6,1.19,29.65,11.86,34.39,42.68h852.41c29.63,0,40.3-11.86,40.3-56.91v-102c0-43.87,0-77-2.36-93.66-1.19-13-4.74-22.53-17.79-29.63-22.53-13-103.14-33.2-186.14-52.16v-13Z"/>
    </g>
  </g>
</svg>
