<svg xmlns="http://www.w3.org/2000/svg" viewBox="0 0 1270.71 591.96">
  <title>Asset 23</title>
  <g id="Layer_2" data-name="Layer 2">
    <g id="Layer_1-2" data-name="Layer 1">
      <path d="M578.41,240.45l-26,7.16V374.72h-93.1V342.5L486.21,278h-.9l56.4-63.54L500.53,176V130.35C565,141.09,625,150.05,668.82,155.41c2.68,26,11.64,31.34,22.38,34L710,83.81C661.66,81.1,582,72.17,500.53,60.53V1.44l-26,8.06V57C380.59,43.53,284.8,26.5,228.4,13.08a868.19,868.19,0,0,1-111,111C76.54,111.32,37.08,95.5,0,76.17v45.51a618.55,618.55,0,0,0,68.17,39.09A303.33,303.33,0,0,1,18,190.33c-35.81,51.9,33.12,111.89,127.12,2.68,103,36.7,213.05,51,317.78,60,1.8,11.64,3.58,19.7,6.28,25.06H194.37v9c0,25.05,13.45,51,18.8,51h20.61V359.5C149.91,338.73,68.92,305.32,0,257.44v40.61a595.19,595.19,0,0,0,106.65,78.47H0v70.7H164c-36.71,28.67-86.83,56.4-127.13,62.69-49.22,60.86,77.88,119,147.7-62.69h49.25v34.92H208.69V492c0,19.71,13.45,49.25,19.71,50.15H428c1.78,12.52,8.06,24.16,13.42,27.74l49.24-63.57-31.34-30.41V447.22h93.1V566.29c0,12.54,4.48,21.48,14.32,23.28,27.74-26,66.25-70.72,66.25-70.72l-54.61-37.61v-34h96.67c3.6,20.6,11.64,27.76,23.28,29.57l9.84-102.07H578.41ZM181,142.89a644,644,0,0,0,37.6-67.14c72.5,17.9,167.38,35.8,256,50.12v58.18C377.88,178.69,276.74,167.05,181,142.89ZM433.41,482.14H259.74v-42H433.41Zm0-99.36H259.74V338H433.41Z"/>
      <path d="M831.51,398.69c33.74-69.21,46.76-151.45,52.07-245.5h22.48c8.27,0,13.6-2.94,15.39-9.46-17.76-19.52-49.7-48.49-49.7-48.49L845.13,136H794.85c10.64-34.89,18.93-71,26-108.84,13-1.18,19.52-7.1,21.29-14.79L769.41,0c-5.91,97.59-24.25,201.7-49.68,275.05l8.27,4.74c13-17.74,24.85-38.45,35.5-61.51,4.73,63.29,13,123.61,27.22,176.27-23.08,54.43-58,104.11-110,147.88l5.91,7.1c52.06-30.16,91.11-66.85,120.09-107.67,16,40.82,37.85,76.92,66.26,104.71,6.5-23.66,22.46-36.68,45.54-42l2.37-5.31C882.4,473.81,854,440.09,831.51,398.69Zm-58-202.3c5.33-13,11.25-27.81,16-43.2H833.3c-1.79,70.4-8.29,134.88-25.43,194C790.72,302.27,780.06,252,773.54,196.39Z"/>
      <path d="M949.22,116l4.24-17.26,174.24,97.62L1174.21,175s15.23,41.72,22.94,69.07c-4.73,4.8-10.81,4.78-18,.74l-128.36-71.92L991.27,279.07c39.63,6.63,89.3,13.46,139.79,20.07l-1.18,8.14c-40.13,3.93-113.28,12.39-195.77,17a33,33,0,0,1-16.44,6.37l-11.06-68.51c29.45-1.79,35.14-4.69,39.76-12.94l57.48-102.58Z"/>
      <path d="M983.92,554.49S966.28,577.27,953.43,592c-4-1.11-5.88-5.14-5.88-10.29V254l10.65-2.94V402h46.28V295.14l10.65-2.94V402h41.51V273.47l10.65-2.94V521.06l24.24,20.2s-16.53,23.14-29,36.73c-4-.74-5.88-4.77-5.88-9.55V438.78h-41.51v62.45l24.24,19.1s-16.53,22.41-29,36.37c-4-1.1-5.88-4.77-5.88-9.92v-108H958.2v95.14Z"/>
      <path d="M1234.72,376.77l-15.44,18h-61.71l-37.84-14.7v73.47c0,38.86-7.13,76-52.42,105.26q-2.72,1.77-5.62,3.48l3.3,4.4,2.32-.79c51.92-18,72-45.53,80-73.41H1223v27.18c0,4.78-1.47,7-7.72,7-7.71,0-43.34-2.2-43.34-2.2v5.14c17.26,2.58,25,5.88,30.12,9.92,5.51,4,7.34,11,8.08,19.84,40.41-3.31,45.55-16.17,45.55-36.73V410.94c7.35-1.47,12.86-4.41,15.06-7.35ZM1223,481.84h-73.1a153.58,153.58,0,0,0,2.2-28.65v-4.42H1223Zm0-43.72h-70.9V405.43H1223Z"/>
    </g>
  </g>
</svg>
