<svg xmlns="http://www.w3.org/2000/svg" viewBox="0 0 1282 1807.86">
  <title>svgFonts4</title>
  <g id="Layer_2" data-name="Layer 2">
    <g id="Layer_1-2" data-name="Layer 1">
      <g>
        <path d="M364.55,234,324,266.7l-324-73v16.54l79.74,18L67.21,283.76,7.9,270.39,0,264.87v22.7l.5-2.22,63.15,14.23L44,386.71,0,376.79v16.55L266.46,453.4l-5.9,26.2,8.17,1.84c16.33,3.68,43.52.07,44.9-3.64L337.7,371c11.5-.27,21.24-2.63,25.45-6.24L319,311.89l-31.23,21.58L229,320.22l12.52-55.57,153,34.46c7.58,1.71,13.64.22,16.67-5.36C394.4,269.34,364.55,234,364.55,234ZM156.75,412.11,93,397.76l19.64-87.13L176.37,325ZM180,309.17l-63.78-14.36,12.53-55.57,63.73,14.36Zm109.69,41.35L270,437.65l-64.24-14.48L225.39,336Z"/>
        <path d="M1147.93,494.7c9,30.45,26.17,57.3,43.77,71.29l-.45,2.26c-7.67,1.35-13.54,7.22-16.69,16.92-12.41-17.37-21.88-42.41-28-73.54v92c0,2.26-8.57,6.54-16,6.54h-3.83V537.34a159.8,159.8,0,0,1-45.57,49.18l-2.48-2.93c22.56-23.24,36.55-55.5,44.44-88.88h-21v-.23a11.29,11.29,0,0,1-2.71.45H1071.9v15.79c47.37,13.76,30,45.8,13.76,32.71-1.58-9-7.89-19.85-13.76-27.75v88.43c0,2.26-8.57,6.77-16,6.77h-3.83V538a161.89,161.89,0,0,1-40.38,48.28l-2.48-2.71c19.12-23.69,31.12-56.18,38.12-88.66h-23.71l-1.8-6.54h30.23V447.78l28.2,2.94c-.45,3.38-2.26,5.41-8.35,6.31v31.36h5L1087.05,474s8.8,7.45,15.11,14.21h24.59V448.23l28.2,2.93c-.45,3.16-2.25,5.41-8.35,6.32v30.68h11.51l11.06-15.11s13.08,10.38,20.75,18c-.68,2.48-2.93,3.61-6.09,3.61Z"/>
        <path d="M300.83,50.44C45.77,329.06-93.87,57.88,71.79,0,137.92,32.48,234.52,40.37,301.7,32.65Z"/>
        <path d="M861.09,514.86l-51.33,4.43L687.41,406.93l-36.86-76.82L454.17,543.94l8.74,8c25.64,23.54,54.26,25.12,58,21l15-16.33L671.07,680.83l-25.69,28,8.75,8c16.89,15.51,52.74,29.1,56.54,26.14L843.9,597.9c13.26,9,26.23,11.2,33.48,10.33ZM686,664.52,550.88,540.38,664.32,416.85,799.49,541Z"/>
        <g>
          <path d="M926.68,744.36c0,69.64-3.84,158.94-70.5,218.75l-5.55-3.84c35-62.38,37.17-141.42,37.17-214.47V611.92l45.29,17.52h243.1L1201,596.11s28.62,22.64,46.14,38.88c-1.29,4.7-6,6.84-12,6.84H926.68Z"/>
          <path d="M959,701.53c375.66,39.53,240.56,313,95.56,214.18-13.18-72.49-64.25-154.87-110.39-204.31Z"/>
        </g>
        <path d="M43.36,1283.49,0,1245.11c3.45-3.77,9.74-6.52,19.86-7.75,6.8-119,17.68-180.29,40.2-200,14.67-12.67,33.52-18,57.06-17.55-.28,13.45,1.4,25,8,30.92,7.53,7.37,24.7,13.49,43.36,17.24l-.64,7.68c-18.69-2.32-49.85-5.36-59.94-5.57-7.69-.16-12,1.19-16.43,4.46-13.22,11.74-22.15,71.61-27.58,171l85.48,1.78c13.11-99.18,48-184.94,179.57-225l4.65,7.31c-98,43.61-127.49,123.71-138.11,218.62l86,1.79,4,14-91.78-1.93c-2.48,27.33-3.57,56.62-4.66,85.91l-64.19-9c1.1-6.7,5.52-11.42,17.07-12.14,1.43-22.55,3.31-44.13,5.69-65.7l-79.24-1.65Z"/>
        <g>
          <path d="M907.85,1524.85l169.3-19.74c6.58-.77,10.76-3,11.51-8-20.36-14.52-53.77-34.19-53.77-34.19l-23.21,37.38-114,13.28c1.89-29.56,0-60.91-3.09-95.22l130.67-15.25c6.58-.77,10.71-3.47,11.46-8.45-20.7-13.59-53.18-32.92-53.18-32.92l-22.92,36-67.1,7.82c-2.33-23.73-5.19-48.3-7.76-74.22,10.76-3,14.2-7.88,14.74-14.62l-61.62,1.39c3.83,32.9,7.84,63.55,10.78,92.55l-77.19,9a418.44,418.44,0,0,0,16.89-61.09c10.08-1.18,14.45-5.69,15.59-11.15l-62.36-8.74c-1,67.68-17.34,133.6-41,178.59l6.16,3.28c24.4-23.29,44.58-52.32,59.17-87.35l84.21-9.81c3.11,34.31,5,65.65,3.08,95.22l-168,19.56,5.38,11.82,161.85-18.85c-7.44,81-44.44,145.25-151.61,205.74l4.76,6.56c137.59-59.14,181.11-128.23,189.86-217.26l3.07-.36c21.46,66,65.89,142.13,177.79,175.33.21-24.92,13-37.52,34.44-44l.21-5.8C990,1630.86,932.09,1580.26,907.85,1524.85Z"/>
          <path d="M735,273.4l154.47,72.05c6,2.8,10.73,3.1,14-.76-9.71-23.05-27.82-57.33-27.82-57.33L836.27,307l-104-48.54c17.12-24.16,32-51.84,47.35-82.67L898.85,231.4c6,2.8,10.93,2.67,14.18-1.18-10.48-22.43-28-55.93-28-55.93L846.64,192.9l-61.22-28.56c10.48-21.42,20.94-43.84,32.36-67.25,10.73,3.09,16.22.75,20.22-4.71L784.82,61.22c-14,30-26.69,58.21-39.4,84.44L675,112.8a418.31,418.31,0,0,0,46.44-43.13c9.2,4.29,15.29,2.74,19.12-1.31L692.06,28.19c-36.37,57.08-84.88,104.62-128.64,130.49l3.53,6c33-7,65.4-21.14,96.21-43.3L740,157.26c-15.36,30.84-30.2,58.51-47.35,82.67L539.36,168.4l-1.62,12.88L685.4,250.19c-48.84,65-114.07,100.31-237,95.55l.61,8.08c148.15,21.88,221.46-14.09,275.64-85.28l2.8,1.31C711,337.29,708.89,425.41,786.72,512.4c13.25-21.1,30.75-25.11,52.4-19.37l3.23-4.83C749.29,406.75,726.56,333.28,735,273.4Z"/>
          <path d="M1082.86,1310.93c23,67.38,9.41,114.44-6.78,137.78-10.54,16.56-29,20.7-39.15,10.91-7.91-8.28-5.28-20.7,3-30.11,19.19-18.82,37.64-67,36.89-118.21Z"/>
          <path d="M1282,1492.34v35.77c-13,1-29.27,1.54-49.69,1.54h-50.82c-41.41,0-54.21-7.53-54.21-38.4V1265l48.93,4.89c-.37,4.9-4.14,9-13.17,10.17v201c0,9.78,4.14,12.79,23,12.79H1235c20,0,35.76-.37,42.92-.75A28.86,28.86,0,0,0,1282,1492.34Z"/>
          <path d="M1228.94,1483.66c-7.15-33.88-33.5-74.54-56.09-102L1177,1379C1296.33,1428.7,1268.09,1513,1228.94,1483.66Z"/>
          <path d="M936,1185.21c28.23-20,55-60.41,71.25-92.07l4.07,2.75C1013.25,1225.11,924.66,1232.82,936,1185.21Z"/>
          <path d="M1282,1282.26v97.36a29.19,29.19,0,0,1-6.13-5.77c-4.14-35.38-16.18-92.6-47.81-131.75l3.77-3C1253.59,1253.27,1270,1268,1282,1282.26Z"/>
          <path d="M1107.17,1214.4c-2.67.79-6-.45-9.79-4.28L958.28,1307c-1.86.94-13.88-5-19.92-13.69l-3-4.34,126.06-87.89c-18.92-.43-36.56-2.1-53.42-5.75v-4.64c44.53-2.38,108-16.15,162.56-38l12.81,40.49c-3.57,1-7.51-.5-11.37-6a418.81,418.81,0,0,1-68.87,12.17Z"/>
          <path d="M983.21,1303.51s7.27,31.08,11.07,52.08c-3.48,2.5-7.88,1.36-12-2L854.56,1250.11c-38,15.22-75.65,21-111.18,18.87l-1.14-5.77c45.43-10.64,103.15-39.43,152.23-79.08l29.41,43.2c-4,3.09-9.6,2.88-16.08-2.86a367,367,0,0,1-41.69,21l81,65.62Z"/>
        </g>
        <g>
          <path d="M546.05,970.17s13.33,51.81,20.1,87.2c-6.16,4.49-14,2.51-21.3-3.35L81.93,683.25l8-18.48,213.45,171L346.43,782,189.3,656.17l7.52-18,161.27,129.2,38-47.49L219.73,578.6l8-18.49L408.25,704.74,453,648.9l63.34,61c-6.9,6.47-15.25,8.35-30.91.08l-27.59,34.45,106.46,85.3,59.32-14.17s13,53.27,18.75,87.83c-6.16,4.49-13.47,2.93-21.3-3.35L445.71,759.59l-38,47.49,93.94,75.24,56.19-12.4s13.55,49.41,19.16,83c-5.64,4.91-13.47,2.92-20.78-2.93L396,821.7,353,875.45,487,982.88Z"/>
          <path d="M218.11,947.17c-7,5.54-17,5.22-28.61-4.92-51.73,47.06-98.27,83-189.5,67.39V965.46c71.14-2.26,112.41-39.53,158.63-91.63Z"/>
          <path d="M402.26,1122.11c-6.15-.2-15.76-3.66-24.85-11.8l-117.5,94c-4.08,2.4-33.52-15.15-46.46-31.34l-6.68-8.35,137.87-110.21-179.14-224L28.15,940.11C25,942.66,12.76,938.59,0,930.45V879.6L161.55,750.43l22,71.43,172,215.17,44.27,4Z"/>
        </g>
        <g>
          <path d="M513.22,1557.27,525.48,1648c-8.9,1.49-19.1-1.43-32.94-10.92-122.43,122.79-190.31,172.15-236.28,170.74-29.2-2.11-56.11-16.08-81.75-39.63,14.49-15.73,24.49-30.14,23.32-44.09.5-14.58-11.62-36.45-26.53-57.66l8.61-8.21c15.87,17.81,45.2,49,56.27,59.2,9.32,8.56,15,11.67,24,11.29,25.8,1.15,87.52-48.51,188-147.4l-76.91-70.63c-99,82-215.56,144.66-371.27,103.7l1.66-13.51c122.45,9.33,227.24-54.48,318.92-136.78l-90.89-83.48L240,1358.94l97.88,89.89c26.41-24.08,50.53-49.17,74.66-74.27l65.83,73.34c-8.12,6.5-19.26,8.1-33.72-3.05-18.29,17.57-36.62,34-55.49,51.07l69.33,63.68Z"/>
          <path d="M727.09,1306.86l-51.33,4.43L553.41,1198.93l-36.86-76.82L320.17,1335.94l8.74,8c25.64,23.54,54.26,25.12,58,21l15-16.33,135.16,124.17-25.69,28,8.75,8c16.89,15.51,52.74,29.1,56.54,26.14L709.9,1389.9c13.26,9,26.23,11.2,33.48,10.33ZM552,1456.52,416.88,1332.38l113.44-123.53L665.49,1333Z"/>
        </g>
      </g>
    </g>
  </g>
</svg>
