<svg xmlns="http://www.w3.org/2000/svg" viewBox="0 0 1282.54 598.55">
  <title>Asset 18</title>
  <g id="Layer_2" data-name="Layer 2">
    <g id="Layer_1-2" data-name="Layer 1">
      <path d="M176.77,503.24C135.65,526.64,77.72,559.57,0,598.55V536C49.8,525.1,112.47,510,174.63,494Z"/>
      <path d="M0,188.73V124.47C24.81,81.28,47,32.47,56.85,0l88.52,35.69c-2.87,6.42-11.42,12.85-25.7,11.43C91.89,90.85,45.52,145.35,0,188.73Z"/>
      <path d="M165.35,366.18l1.43,10C131.93,392.69,71.39,421.78,0,450.87V391.59C46.55,385.2,106.23,376.25,165.35,366.18Z"/>
      <path d="M195.33,175.6c-3.56,6.43-12.85,12.14-27.84,9.28C131.62,241,64.18,319.68,0,378v-47.3a893,893,0,0,0,62.56-92.33C44,246.72,22.77,256,0,265.18V212.72c24.87-1.35,53.36-3.17,81.84-5.71a665.59,665.59,0,0,0,35.68-72.1Z"/>
      <path d="M1280,237.54v54.87c-28.68-32.48-52.71-73.27-68.38-114.94C1171,255.07,1114.84,311.71,1052,347.39l-4.9-5.35c50.39-45,103.46-121.31,132.9-205.6l55.31,22.75c-2.24,4.9-7.59,8.47-17.4,7.13C1232,193.18,1254.6,217.42,1280,237.54Z"/>
      <path d="M1272.72,304.44l-20.07,22.3H1145.18l-43.26-17.84V498.44h6.23c17,0,34.35-8.92,34.35-12.93V465.88h114.62v30.78h6.69A63.41,63.41,0,0,0,1280,494V310Zm-15.6,148.51H1142.5V339.67h114.62Z"/>
      <path d="M1241.06,264.71s26.32,21.85,41.48,37c-1.34,4.91-5.35,7.14-11.59,7.14H1123.32l-3.12-12.94h97.67Z"/>
    </g>
  </g>
</svg>
