<svg xmlns="http://www.w3.org/2000/svg" viewBox="0 0 1229.99 823">
  <title>Asset 20</title>
  <g id="Layer_2" data-name="Layer 2">
    <g id="Layer_1-2" data-name="Layer 1">
      <path d="M1230,60.18c-6.36,6.38-14.26,8.43-29,.54-132.64,200.67-178.83,360.22-57.2,563.4l-5.21,4.85c-28.42-14.11-56.71-11.4-83.17,10.16-79.19-170.62-31.2-320.87,74.09-490.3C1024.86,269.47,890.08,373.06,632.94,325.46l-.39-12.23C925.18,326.15,1044.87,158.74,1164.44,0Z"/>
      <path d="M62.4,353C113,502.68-9.42,509.8.59,440.41c25.65-19.39,46.63-59,54.92-90.77Z"/>
      <path d="M166.89,233.71c-17.14,82-47.27,232.74-52.7,267.69-2.69,21.19-4.66,43-3,60.38,4.53,33.33,30,59.24,33.41,116.31,1.67,31.57-13.8,53.31-41.91,56-14,1.34-27.79-8.15-33.37-31.24,4.78-70-4.94-129.16-20.62-137.79-10-5.79-19.56-6.9-33.74-6.89l-1.28-13.38L42.46,542c8.71-.83,11.38-1.09,17.45-15.18,10.34-26,10.34-26,95.36-294.73Z"/>
      <path d="M19,194c166.69,18.16,124.34,135.1,63.18,99.48-10.76-33.61-42.34-71.25-68.55-94.77Z"/>
      <path d="M421.61,325.57c51.66,49,135.11,81.67,207.58,92.05l-.48,6.84c-22.66,8.31-36.86,29.78-40.27,61.39C513,457.54,449.25,404,404.95,327.7l-66.67,8.52c-33.36,89-97.94,161.58-204.5,218.56l-5.69-7.41c76.54-58.56,122.7-126.8,146.17-203L167.6,358l-7.81-18.66L280.47,324A493.83,493.83,0,0,0,294.33,209.7l-124,15.84-7.8-18.65,278-35.52,30-51.94s45.59,28.05,73.16,47.57c-1.06,7.58-7.3,11.77-16.64,13L367,200.42c-3.55,41.11-10.2,79.23-21.19,115.19l151.34-19.33,31-54.11s46.34,28.64,74.75,49.4c-1.06,7.59-7.3,11.78-16.64,13Z"/>
      <path d="M310.12,587.95C172,737.6,86.8,581.55,168.45,583.45c33.58,19,83.17,24.6,136.1-4.81Z"/>
      <path d="M313.18,405l82.68,8.07c-1.35,9.41-8.07,14.79-23.53,16.8V655.72c0,45-9.41,70.57-83.34,77.3-2-18.82-4.7-32.94-14.79-42.35-9.41-10.08-25.53-16.8-56.45-21.51V659.08s67.89,4.7,81.32,4.7c10.76,0,14.11-3.36,14.11-12.1Z"/>
      <path d="M466.47,551.5C497,702.07,376.78,734.82,379,665.93c35-28.56,64.65-79.06,78.92-118.34Z"/>
      <path d="M593.45,585.62c-40,190-181.09,164.51-144.3,98.61,50.14-13.66,105.66-62.41,138.26-105.73Z"/>
      <path d="M693.35,604.25c0,69.64-3.84,158.94-70.5,218.75l-5.55-3.84c35-62.38,37.17-141.42,37.17-214.47V471.81l45.29,17.52h243.1L967.64,456s28.62,22.64,46.14,38.88c-1.29,4.7-6,6.84-12,6.84H693.35Z"/>
      <path d="M887.6,358.59c9,30.45,26.17,57.3,43.77,71.29l-.45,2.26c-7.67,1.35-13.54,7.22-16.69,16.92-12.41-17.37-21.88-42.41-28-73.54v92c0,2.26-8.57,6.54-16,6.54h-3.83V401.23a159.9,159.9,0,0,1-45.57,49.18l-2.48-2.93c22.56-23.24,36.55-55.5,44.44-88.88h-21v-.23a11.28,11.28,0,0,1-2.71.45H811.57v15.79c47.37,13.76,30,45.8,13.76,32.71-1.58-9-7.89-19.85-13.76-27.75V468c0,2.26-8.57,6.77-16,6.77h-3.83V401.91a162,162,0,0,1-40.38,48.28l-2.48-2.71C768,423.79,780,391.3,787,358.82H763.29l-1.8-6.54h30.23V311.67l28.2,2.94c-.45,3.38-2.26,5.41-8.35,6.31v31.36h5l10.15-14.44s8.8,7.45,15.11,14.21h24.59V312.12l28.2,2.93c-.45,3.16-2.25,5.41-8.35,6.32v30.68h11.51l11.06-15.11s13.08,10.38,20.75,18c-.68,2.48-2.93,3.61-6.09,3.61Z"/>
      <path d="M725.69,561.42c375.66,39.53,240.56,313,95.56,214.18C808.07,703.11,757,620.73,710.86,571.29Z"/>
    </g>
  </g>
</svg>
