<svg xmlns="http://www.w3.org/2000/svg" viewBox="0 0 1282.54 2135.15">
  <title>svgFonts0</title>
  <g id="Layer_2" data-name="Layer 2">
    <g id="Layer_1-2" data-name="Layer 1">
      <path d="M177.1,1320.24c-41.12,23.4-99,56.33-176.77,95.31V1353c49.8-10.9,112.47-26,174.63-42Z"/>
      <path d="M.33,1005.73V941.47c24.81-43.19,47-92,56.85-124.47l88.52,35.69c-2.87,6.42-11.42,12.85-25.7,11.43C92.22,907.85,45.85,962.35.33,1005.73Z"/>
      <path d="M165.68,1183.18l1.43,10c-34.85,16.51-95.39,45.6-166.78,74.69v-59.28C46.88,1202.2,106.56,1193.25,165.68,1183.18Z"/>
      <path d="M195.66,992.6c-3.56,6.43-12.85,12.14-27.84,9.28C132,1058,64.51,1136.68.33,1195v-47.3a892.28,892.28,0,0,0,62.56-92.33C44.33,1063.72,23.1,1073,.33,1082.18v-52.46c24.87-1.35,53.36-3.17,81.84-5.71a665,665,0,0,0,35.68-72.1Z"/>
      <path d="M1280,1238.54v54.87c-28.68-32.48-52.71-73.27-68.38-114.94-40.62,77.6-96.78,134.24-159.62,169.92l-4.9-5.35c50.39-45,103.46-121.31,132.9-205.6l55.31,22.75c-2.24,4.9-7.59,8.47-17.4,7.13C1232,1194.18,1254.6,1218.42,1280,1238.54Z"/>
      <path d="M1272.72,1305.44l-20.07,22.3H1145.18l-43.26-17.84v189.54h6.23c17,0,34.35-8.92,34.35-12.93v-19.63h114.62v30.78h6.69A63.51,63.51,0,0,0,1280,1495V1311ZM1257.12,1454H1142.5V1340.67h114.62Z"/>
      <path d="M1241.06,1265.71s26.32,21.85,41.48,37c-1.34,4.91-5.35,7.14-11.59,7.14H1123.32l-3.12-12.94h97.67Z"/>
      <path d="M404.62,1661.08c7.42,6.78,9.44,16.17,11.9,35.83,47.7,23.09,98.35,58.79,146.91,100.86l3.15-.14c44.59-202.07,178.91-152,133.86-82-37.34,13.55-82.39,48.82-114.92,81.12l336.93-15.3c6.32-.29,26.4,24.1,28,60.4l.61,13.41-314.83,14.3c39.13,42.53,72.77,87.65,100.25,134.64l-8.33,8.29c-83.56-99-215.95-193.4-323.75-234.38l10.53,232-22.56,8.14L381.55,1780l-44.65-43Z"/>
      <path d="M124.47,1937.18c-18-70.76-72.31-154-124.47-217.84v-48.85C385,1756.23,268.59,2032.74,124.47,1937.18Z"/>
      <path d="M1142.1,1668.06c14.23-35.56,27.27-45.06,48.6-45.06,52.17,0,71.13,53.36,71.13,247.79v117.36c0,112.62-26.08,147-118.55,147H209.07l16.6-157.66c16.6,1.19,29.65,11.86,34.39,42.68h852.41c29.63,0,40.3-11.86,40.3-56.91v-102c0-43.87,0-77-2.36-93.66-1.19-13-4.74-22.53-17.79-29.63-22.53-13-103.14-33.2-186.14-52.16v-13Z"/>
      <path d="M578.41,240.45l-26,7.16V374.72h-93.1V342.5l26.9-64.5h-.9l56.4-63.54L500.53,176V130.35C565,141.09,625,150.05,668.82,155.41c2.68,26,11.64,31.34,22.38,34L710,83.81C661.66,81.1,582,72.17,500.53,60.53V1.44l-26,8.06V57C380.59,43.53,284.8,26.5,228.4,13.08a867.38,867.38,0,0,1-111,111C76.54,111.32,37.08,95.5,0,76.17v45.51a618.24,618.24,0,0,0,68.17,39.09A303.42,303.42,0,0,1,18,190.33c-35.81,51.9,33.12,111.89,127.12,2.68,103,36.7,213.05,51,317.78,60,1.8,11.64,3.58,19.7,6.28,25.06H194.37v9c0,25.05,13.45,51,18.8,51h20.61V359.5C149.91,338.73,68.92,305.32,0,257.44v40.61a595.24,595.24,0,0,0,106.65,78.47H0v70.7H164c-36.71,28.67-86.83,56.4-127.13,62.69-49.22,60.86,77.88,119,147.7-62.69h49.25v34.92H208.69V492c0,19.71,13.45,49.25,19.71,50.15H428c1.78,12.52,8.06,24.16,13.42,27.74l49.24-63.57-31.34-30.41V447.22h93.1V566.29c0,12.54,4.48,21.48,14.32,23.28,27.74-26,66.25-70.72,66.25-70.72l-54.61-37.61v-34h96.67c3.6,20.6,11.64,27.76,23.28,29.57l9.84-102.07H578.41ZM181,142.89a643.27,643.27,0,0,0,37.6-67.14c72.5,17.9,167.38,35.8,256,50.12v58.18C377.88,178.69,276.74,167.05,181,142.89ZM433.41,482.14H259.74v-42H433.41Zm0-99.36H259.74V338H433.41Z"/>
      <path d="M831.51,398.69c33.74-69.21,46.76-151.45,52.07-245.5h22.48c8.27,0,13.6-2.94,15.39-9.46-17.76-19.52-49.7-48.49-49.7-48.49L845.13,136H794.85c10.64-34.89,18.93-71,26-108.84,13-1.18,19.52-7.1,21.29-14.79L769.41,0c-5.91,97.59-24.25,201.7-49.68,275.05l8.27,4.74c13-17.74,24.85-38.45,35.5-61.51,4.73,63.29,13,123.61,27.22,176.27-23.08,54.43-58,104.11-110,147.88l5.91,7.1c52.06-30.16,91.11-66.85,120.09-107.67,16,40.82,37.85,76.92,66.26,104.71,6.5-23.66,22.46-36.68,45.54-42l2.37-5.31C882.4,473.81,854,440.09,831.51,398.69Zm-58-202.3c5.33-13,11.25-27.81,16-43.2H833.3c-1.79,70.4-8.29,134.88-25.43,194-17.15-44.92-27.81-95.19-34.33-150.8Z"/>
      <path d="M949.22,116l4.24-17.26,174.24,97.62L1174.21,175s15.23,41.72,22.94,69.07c-4.73,4.8-10.81,4.78-18,.74l-128.36-71.92L991.27,279.07c39.63,6.63,89.3,13.46,139.79,20.07l-1.18,8.14c-40.13,3.93-113.28,12.39-195.77,17a32.91,32.91,0,0,1-16.44,6.37l-11.06-68.51c29.45-1.79,35.14-4.69,39.76-12.94l57.48-102.58Z"/>
      <path d="M983.92,554.49S966.28,577.27,953.43,592c-4-1.11-5.88-5.14-5.88-10.29V254l10.65-2.94V402h46.28V295.14l10.65-2.94V402h41.51V273.47l10.65-2.94V521.06l24.24,20.2s-16.53,23.14-29,36.73c-4-.74-5.88-4.77-5.88-9.55V438.78h-41.51v62.45l24.24,19.1s-16.53,22.41-29,36.37c-4-1.1-5.88-4.77-5.88-9.92v-108H958.2v95.14Z"/>
      <path d="M1234.72,376.77l-15.44,18h-61.71l-37.84-14.7v73.47c0,38.86-7.13,76-52.42,105.26-1.81,1.18-3.69,2.34-5.62,3.48l3.3,4.4,2.32-.79c51.92-18,72-45.53,80-73.41H1223v27.18c0,4.78-1.47,7-7.72,7-7.71,0-43.34-2.2-43.34-2.2v5.14c17.26,2.58,25,5.88,30.12,9.92,5.51,4,7.34,11,8.08,19.84,40.41-3.31,45.55-16.17,45.55-36.73V410.94c7.35-1.47,12.86-4.41,15.06-7.35ZM1223,481.84h-73.1a153.62,153.62,0,0,0,2.2-28.65v-4.42H1223Zm0-43.72h-70.9V405.43H1223Z"/>
      <path d="M364.88,1505.89l-40.55,32.7-324-73v16.54l79.74,18-12.53,55.54L8.23,1542.28l-7.9-5.52v22.7l.5-2.22L64,1571.47,44.33,1658.6l-44-9.92v16.55l266.46,60.06-5.9,26.2,8.17,1.84c16.33,3.68,43.52.07,44.9-3.64L338,1642.9c11.5-.27,21.24-2.63,25.45-6.24l-44.15-52.88-31.23,21.58-58.77-13.25,12.52-55.57,153,34.46c7.58,1.71,13.64.22,16.67-5.36C394.73,1541.23,364.88,1505.89,364.88,1505.89ZM157.08,1684l-63.75-14.35L113,1582.52l63.73,14.36Zm23.25-102.94-63.78-14.36,12.53-55.57,63.73,14.36ZM290,1622.41l-19.69,87.13-64.24-14.48,19.63-87.13Z"/>
      <path d="M1230.33,650.18c-6.36,6.38-14.26,8.43-29,.54-132.64,200.67-178.83,360.22-57.2,563.4l-5.21,4.85c-28.42-14.11-56.71-11.4-83.17,10.16-79.19-170.62-31.2-320.87,74.09-490.3C1025.19,859.47,890.41,963.06,633.27,915.46l-.39-12.23C925.51,916.15,1045.2,748.74,1164.77,590Z"/>
      <path d="M421.94,915.57c51.66,49,135.11,81.67,207.58,92l-.48,6.84c-22.66,8.31-36.86,29.78-40.27,61.39C513.33,1047.54,449.58,994,405.28,917.7l-66.67,8.52c-33.36,89-97.94,161.58-204.5,218.56l-5.69-7.41c76.54-58.56,122.7-126.8,146.17-203L167.93,948l-7.81-18.66L280.8,914a493.48,493.48,0,0,0,13.86-114.3l-124,15.84-7.8-18.65,278-35.52,30-51.94S516.45,737.48,544,757c-1.06,7.58-7.3,11.77-16.64,13l-160,20.42c-3.55,41.11-10.2,79.23-21.19,115.19l151.34-19.33,31-54.11s46.34,28.64,74.75,49.4c-1.06,7.59-7.3,11.78-16.64,13Z"/>
      <path d="M466.8,1141.5c30.53,150.57-89.69,183.32-87.47,114.43,35-28.56,64.65-79.06,78.92-118.34Z"/>
      <path d="M727.09,1431.75l-51.33,4.43L553.41,1323.82,516.55,1247,320.17,1460.83l8.74,8c25.64,23.54,54.26,25.12,58,21.05l15-16.33,135.16,124.17-25.69,28,8.75,8c16.89,15.51,52.74,29.1,56.54,26.14L709.9,1514.79c13.26,9,26.23,11.2,33.48,10.33ZM552,1581.41,416.88,1457.27l113.44-123.53,135.17,124.14Z"/>
    </g>
  </g>
</svg>
