<svg xmlns="http://www.w3.org/2000/svg" viewBox="0 0 1278.93 661.31">
  <title>Asset 19</title>
  <g id="Layer_2" data-name="Layer 2">
    <g id="Layer_1-2" data-name="Layer 1">
      <path d="M461.64,356.86,423.86,404.3H190.93c11-15.78,22-30.91,30.27-42.61,21.9.74,28.87-5.48,31.56-13.09l-91.35-24c-10.31,19.22-28.87,48.09-50.87,79.65H0v20H96.8C70.71,461.3,42.58,497,21.88,519.7,83.71,532,141.45,546.53,193,561.66,143.61,594.21,79.72,618,0,636.38v21c113.6-14.11,194.82-38,255.54-75.89,70.1,23.39,127.1,49.48,168.32,74.26,61.08,27.48,133.31-53.65-121-111.3,33.7-32.31,57.75-72.14,78.35-120.23H513.16c9.57,0,17.18-3.43,18.57-11C504.9,388.52,461.64,356.86,461.64,356.86ZM232.8,530.75c-37-6.23-79.65-12.45-127.09-17.18,22-25.44,46.79-58.39,70.09-89.31H303.63C287.11,466.13,264.45,501.87,232.8,530.75Z"/>
      <path d="M364.55,139.89,324,172.59,0,99.57v16.54l79.74,18L67.21,189.65,7.9,176.28,0,170.76v22.7l.5-2.22,63.15,14.23L44,292.6,0,282.68v16.55l266.46,60.06-5.9,26.2,8.17,1.84c16.33,3.68,43.52.07,44.9-3.64L337.7,276.9c11.5-.27,21.24-2.63,25.45-6.24L319,217.78l-31.23,21.58L229,226.11l12.52-55.57L394.57,205c7.58,1.71,13.64.22,16.67-5.36C394.4,175.23,364.55,139.89,364.55,139.89ZM156.75,318,93,303.65l19.64-87.13,63.73,14.36ZM180,215.06,116.22,200.7l12.53-55.57,63.73,14.36Zm109.69,41.35L270,343.54l-64.24-14.48,19.63-87.13Z"/>
      <path d="M1117.06,23.1,1116,18h47.61V0l21.87,1.94c-.18,2.47-1.59,4.23-6.17,4.76V18h35.09V0l22.39,1.94c-.18,2.47-1.76,4.23-6.35,4.76V18H1253l9.34-11.64s10.4,8.11,16.58,13.93c-.35,1.94-2.12,2.82-4.59,2.82h-43.91v9.52c0,1.06-5.82,3.35-13.4,3.53h-2.64v-13H1179.3V33.33c0,1.41-6.35,3.53-13.22,3.53h-2.47V23.1Z"/>
    </g>
  </g>
</svg>
